<?xml version="1.0" standalone="no"?>
<!DOCTYPE svg PUBLIC "-//W3C//DTD SVG 1.1//EN" "http://www.w3.org/Graphics/SVG/1.1/DTD/svg11.dtd" >
<svg xmlns="http://www.w3.org/2000/svg">
<metadata>Generated by IcoMoon</metadata>
<defs>
<font id="vw_d5_icons" horiz-adv-x="1024">
<font-face units-per-em="1024" ascent="960" descent="-64" />
<missing-glyph horiz-adv-x="1024" />
<glyph unicode="&#x20;" horiz-adv-x="512" d="" />
<glyph unicode="&#xe900;" glyph-name="icon-navigation-importer" horiz-adv-x="1707" d="M853.333 939.52c-273.067 0-498.347-218.453-498.347-491.52s221.867-491.52 494.933-491.52c273.067 0 498.347 221.867 498.347 491.52 3.413 273.067-221.867 491.52-494.933 491.52zM471.040 448c0 139.947 78.507 266.24 194.56 331.093l10.24 3.413-27.307-37.547c0 0 27.307-30.72 23.893-37.547-3.413-3.413-17.067-17.067-17.067-17.067l-40.96-61.44 23.893-27.307c0 0 6.827-61.44 6.827-64.853s23.893-34.133 23.893-34.133l-17.067 78.507 34.133-105.813 30.72-34.133 27.307-6.827 47.787-30.72 23.893-34.133 30.72-6.827 27.307-6.827-20.48-34.133-34.133-61.44 34.133-143.36c0 0-17.067-30.72-27.307-51.2-197.973 17.067-354.987 180.907-354.987 382.293zM866.987 69.12l44.373 27.307c0 0 119.467 78.507 129.707 88.747 10.24 13.653 17.067 54.613 17.067 54.613l-44.373 30.72v30.72l-98.987 81.92-51.2-10.24h-37.547l-6.827 54.613h-27.307l13.653 47.787h-17.067l-10.24-20.48h-27.307c0 0-17.067 20.48-13.653 30.72 0 6.827 13.653 51.2 13.653 51.2h81.92l13.653-40.96h6.827v54.613c0 0 44.373 68.267 47.787 71.68 3.413 0 51.2 17.067 51.2 17.067l44.373 30.72-27.307 51.2c0 0-61.44 20.48-64.853 20.48s-13.653-17.067-13.653-17.067l-13.653-30.72-17.067 30.72-51.2 20.48 17.067 13.653 30.72 6.827 78.507-20.48v30.72c0 0-6.827 13.653-17.067 30.72 13.653-3.413 30.72-6.827 30.72-6.827 6.827 0 27.307-44.373 30.72-44.373s37.547-30.72 37.547-30.72l6.827 34.133 13.653 17.067-3.413 6.827c37.547-20.48 68.267-44.373 95.573-71.68v0-30.72l23.893-13.653 6.827 6.827c10.24-17.067 23.893-34.133 30.72-51.2l-17.067-6.827 6.827-51.2 30.72-10.24c0 0 0 13.653 0 17.067 3.413-10.24 6.827-17.067 6.827-27.307h-17.067v-64.853l-10.24-34.133v-34.133l-10.24-27.307 6.827-64.853 23.893 6.827c-44.373-143.36-180.907-249.173-344.747-256zM832.853 488.96l6.827-10.24 37.547-34.133v23.893l-23.893 20.48zM904.533 465.067c0 0-20.48-17.067-17.067-17.067s27.307 0 27.307 0l20.48-6.827-10.24 23.893h-20.48z" />
<glyph unicode="&#xe901;" glyph-name="icon-navigation-menu" d="M993.28 960h-962.56c-15.36 0-30.72-15.36-30.72-35.84v-128c0-20.48 15.36-35.84 30.72-35.84h957.44c15.36 0 30.72 15.36 30.72 35.84v128c5.12 20.48-10.24 35.84-25.6 35.84zM993.28 550.4h-962.56c-15.36 0-30.72-20.48-30.72-40.96v-128c0-15.36 15.36-35.84 30.72-35.84h957.44c15.36 0 30.72 15.36 30.72 35.84v128c5.12 20.48-10.24 40.96-25.6 40.96zM993.28 135.68h-962.56c-15.36 0-30.72-15.36-30.72-35.84v-128c0-20.48 15.36-35.84 30.72-35.84h957.44c15.36 0 30.72 15.36 30.72 35.84v128c5.12 20.48-10.24 35.84-25.6 35.84z" />
<glyph unicode="&#xe902;" glyph-name="icon-navigation-models" horiz-adv-x="1707" d="M1474.56 441.173v75.093c0 0-10.24 34.133-58.027 85.333-27.307 30.72-44.373 40.96-44.373 40.96l13.653 10.24v6.827c0 0-174.080 37.547-426.667 30.72-256-6.827-392.533-133.12-392.533-133.12s-197.973-17.067-290.133-61.44c-37.547-20.48-51.2-85.333-51.2-85.333l-13.653-23.893v-88.747c0 0 37.547-27.307 129.707-27.307 3.413 0 6.827 0 10.24 0 13.653-37.547 47.787-68.267 92.16-68.267s78.507 27.307 92.16 68.267c191.147 0 474.453 0 665.6 0 13.653-37.547 47.787-64.853 92.16-64.853s78.507 27.307 92.16 64.853c10.24 0 17.067 0 17.067 0s95.573 10.24 95.573 61.44c0 51.2 0 71.68 0 71.68l-23.893 37.547z" />
<glyph unicode="&#xe903;" glyph-name="icon-navigation-more" horiz-adv-x="1707" d="M413.013 587.947c-112.64 0-139.947-30.72-139.947-139.947s27.307-139.947 139.947-139.947c112.64 0 139.947 27.307 139.947 139.947s-27.307 139.947-139.947 139.947zM853.333 587.947c-112.64 0-139.947-27.307-139.947-139.947s27.307-139.947 139.947-139.947 139.947 27.307 139.947 139.947-27.307 139.947-139.947 139.947zM1293.653 587.947c-112.64 0-139.947-27.307-139.947-139.947s27.307-139.947 139.947-139.947c112.64 0 139.947 27.307 139.947 139.947s-27.307 139.947-139.947 139.947z" />
<glyph unicode="&#xe904;" glyph-name="icon-navigation-news" horiz-adv-x="1707" d="M1327.787 785.92h-948.907c-17.067 0-27.307-13.653-27.307-27.307v-549.547c0-17.067 13.653-27.307 27.307-27.307h184.32v-201.387h71.68l150.187 201.387h542.72c17.067 0 27.307 13.653 27.307 27.307v546.133c0 17.067-10.24 30.72-27.307 30.72zM648.533 437.76c-37.547 0-44.373 10.24-44.373 44.373s10.24 44.373 44.373 44.373c37.547 0 44.373-10.24 44.373-44.373 0-37.547-10.24-44.373-44.373-44.373zM853.333 437.76c-37.547 0-44.373 10.24-44.373 44.373s10.24 44.373 44.373 44.373c37.547 0 44.373-10.24 44.373-44.373 0-37.547-6.827-44.373-44.373-44.373zM1058.133 437.76c-37.547 0-44.373 10.24-44.373 44.373s10.24 44.373 44.373 44.373 44.373-10.24 44.373-44.373c3.413-37.547-6.827-44.373-44.373-44.373z" />
<glyph unicode="&#xe905;" glyph-name="icon-navigation-offer" horiz-adv-x="1707" d="M1280 840.533l-30.72 30.72c-6.827 6.827-17.067 10.24-23.893 10.24l-310.613-34.133-488.107-484.693c-10.24-10.24-10.24-27.307 0-34.133l307.2-307.2c10.24-10.24 27.307-10.24 34.133 0l484.693 484.693 34.133 310.613c3.413 10.24 0 20.48-6.827 23.893zM590.507 304.64l320.853 320.853 34.133-34.133-320.853-320.853-34.133 34.133zM713.387 181.76l-34.133 34.133 249.173 249.173 34.133-34.133-249.173-249.173zM1122.987 666.453c-27.307 0-51.2 23.893-51.2 51.2s23.893 51.2 51.2 51.2c27.307 0 51.2-23.893 51.2-51.2 0-30.72-23.893-51.2-51.2-51.2z" />
<glyph unicode="&#xe906;" glyph-name="icon-navigation-owners" horiz-adv-x="1707" d="M1177.6 734.72c3.413 13.653 3.413 23.893 3.413 37.547 0 102.4-81.92 184.32-184.32 184.32-88.747 0-163.84-64.853-180.907-146.773-40.96-6.827-75.093-40.96-116.053-105.813-64.853-102.4-68.267-157.013 3.413-218.453l-218.453-372.053 13.653-54.613 44.373 10.24 20.48 30.72 37.547 20.48v40.96l47.787 13.653v44.373l47.787 13.653v40.96l37.547 20.48v40.96l47.787 13.653 44.373 58.027c78.507-30.72 122.88-3.413 187.733 95.573 78.507 133.12 64.853 184.32-58.027 262.827-34.133 20.48-61.44 34.133-88.747 44.373 13.653 58.027 68.267 102.4 129.707 102.4 75.093 0 133.12-61.44 133.12-133.12 0-6.827 0-10.24 0-17.067-20.48 6.827-47.787 10.24-78.507 10.24 30.72-27.307 58.027-61.44 68.267-102.4 13.653-64.853-17.067-129.707-54.613-187.733-27.307-44.373-58.027-85.333-98.987-109.227v-392.533l37.547-37.547 30.72 30.72 3.413 37.547 20.48 37.547-20.48 34.133 34.133 37.547-20.48 37.547 34.133 34.133-20.48 37.547 20.48 34.133-20.48 37.547 34.133 37.547 6.827 71.68c81.92 10.24 109.227 58.027 112.64 174.080 3.413 75.093-6.827 122.88-40.96 150.187zM931.84 669.867c6.827-27.307-10.24-58.027-37.547-64.853s-58.027 10.24-64.853 37.547c-3.413 13.653 0 30.72 6.827 40.96 10.24-17.067 20.48-30.72 34.133-44.373 3.413-3.413 10.24-6.827 17.067-6.827s13.653 3.413 17.067 6.827c10.24 10.24 10.24 27.307 0 37.547-6.827 10.24-17.067 20.48-23.893 30.72 23.893 0 44.373-17.067 51.2-37.547z" />
<glyph unicode="&#xe907;" glyph-name="icon-navigation-profile" horiz-adv-x="1707" d="M1194.667 171.52c-3.413 256-54.613 351.573-228.693 375.467-27.307-20.48-61.44-34.133-105.813-34.133s-81.92 13.653-105.813 34.133c-180.907-20.48-235.52-112.64-238.933-372.053 0-10.24 0-17.067 0-27.307v-126.293c0-13.653 10.24-23.893 20.48-23.893 0 0 71.68-34.133 320.853-34.133s317.44 34.133 317.44 34.133c10.24 0 20.48 10.24 20.48 23.893v109.227c0 13.653 0 20.48 0 20.48 0 6.827 0 13.653 0 20.48zM860.16 594.773c98.987 0 160.427 61.44 160.427 160.427s-44.373 177.493-160.427 177.493c-119.467 0-160.427-78.507-160.427-177.493s61.44-160.427 160.427-160.427z" />
<glyph unicode="&#xe908;" glyph-name="icon-navigation-responsibility" horiz-adv-x="1707" d="M1136.64 690.347c17.067 34.133 23.893 75.093 13.653 122.88-17.067 68.267-64.853 122.88-133.12 139.947-92.16 27.307-187.733-20.48-225.28-102.4-23.893 30.72-61.44 51.2-105.813 51.2-61.44 3.413-119.467-37.547-139.947-92.16-20.48-58.027-3.413-116.053 37.547-157.013-58.027-30.72-98.987-88.747-102.4-160.427-3.413-81.92 47.787-157.013 126.293-184.32 51.2-17.067 98.987-13.653 143.36 6.827 3.413 20.48 10.24 40.96 13.653 61.44 0 3.413 3.413 6.827 3.413 10.24-10.24 10.24-23.893 23.893-37.547 40.96-58.027 75.093-37.547 174.080-37.547 174.080s13.653-75.093 54.613-122.88c13.653-17.067 27.307-27.307 37.547-37.547 68.267 167.253 170.667 262.827 170.667 262.827-17.067-20.48-98.987-232.107-133.12-419.84-23.893-150.187-13.653-303.787-13.653-337.92 0-3.413 3.413-6.827 10.24-6.827h92.16c6.827 0 10.24 3.413 10.24 10.24-6.827 37.547-30.72 163.84-17.067 317.44 6.827-3.413 17.067-3.413 23.893-6.827 133.12-23.893 262.827 64.853 286.72 201.387 20.48 85.333-13.653 170.667-78.507 228.693z" />
<glyph unicode="&#xe909;" glyph-name="icon-navigation-volkswagen-live" horiz-adv-x="1707" d="M1249.28 823.467h-645.12c-40.96 0-71.68-30.72-71.68-71.68v-587.093h-58.027v512c0 23.893-20.48 44.373-44.373 44.373s-44.373-20.48-44.373-44.373v-529.067c0-40.96 30.72-71.68 71.68-71.68h92.16c3.413 0 3.413 0 6.827 0s3.413 0 6.827 0h686.080c40.96 0 71.68 30.72 71.68 71.68v604.16c0 37.547-30.72 71.68-71.68 71.68zM996.693 294.4h-273.067v61.44h273.067v-61.44zM1136.64 427.52h-413.013v61.44h413.013v-61.44zM1136.64 564.053h-413.013v61.44h413.013v-61.44z" />
<glyph unicode="&#xe90a;" glyph-name="service" d="M884.48 618.24l-21.76 21.76-92.16-92.16-89.6 24.32-24.32 89.6 92.16 92.16-21.76 21.76c-44.8 1.28-90.88-15.36-124.16-48.64-47.36-47.36-58.88-115.2-37.12-174.080l-336.64-336.64c-23.040-23.040-23.040-61.44 0-84.48l11.52-11.52c23.040-23.040 61.44-24.32 84.48 0l336.64 336.64c58.88-21.76 126.72-8.96 174.080 37.12 33.28 33.28 49.92 79.36 48.64 124.16z" />
<glyph unicode="&#xe90b;" glyph-name="corazon_vwytu" horiz-adv-x="1117" d="M1021.503 862.86c-127.33 127.522-333.786 128.098-462.076 1.152v0c-127.906 127.906-335.514 128.098-463.421 0s-128.098-335.514 0-463.421v0l462.652-464.573 1.152 1.152 462.652 463.421c58.728 59.166 95.022 140.671 95.022 230.652 0 90.46-36.681 172.352-95.981 231.614z" />
<glyph unicode="&#xe90c;" glyph-name="icon-navigation-business-customers" horiz-adv-x="1707" d="M948.907 526.507c-27.307 51.2-75.093 129.707-85.333 139.947s-187.733 10.24-232.107 13.653c-44.373 0-204.8 0-218.453-13.653-10.24-6.827-47.787-88.747-71.68-139.947-23.893 0-51.2-3.413-61.44-10.24-13.653-13.653-27.307-27.307-17.067-37.547 6.827-6.827 17.067-3.413 17.067-3.413h37.547c-3.413-6.827-3.413-13.653-6.827-20.48-37.547-112.64-37.547-136.533-37.547-136.533v-146.773c0 0 3.413-27.307 23.893-40.96v-71.68c0-6.827 6.827-13.653 13.653-13.653h71.68c6.827 0 13.653 6.827 13.653 13.653v58.027c105.813-3.413 382.293-3.413 488.107 0v-58.027c0-6.827 6.827-13.653 13.653-13.653h71.68c6.827 0 13.653 6.827 13.653 13.653v71.68c23.893 13.653 23.893 40.96 23.893 40.96v146.773c0 0 0 23.893-37.547 136.533-3.413 6.827-3.413 13.653-6.827 20.48h37.547c0 0 13.653 0 17.067 3.413 10.24 10.24-3.413 27.307-17.067 37.547 6.827 10.24-27.307 10.24-51.2 10.24zM453.973 615.253c23.893 3.413 78.507 3.413 160.427 6.827 6.827 0 17.067 0 20.48 0 6.827 0 13.653 0 23.893 0 88.747 0 146.773-3.413 174.080-6.827 20.48-30.72 61.44-98.987 75.093-129.707h-518.827c13.653 27.307 47.787 98.987 64.853 129.707zM378.88 290.987v0c-27.307 3.413-47.787 23.893-47.787 51.2s23.893 51.2 51.2 51.2c6.827 0 23.893-3.413 23.893-3.413l58.027-34.133 13.653-64.853h-98.987zM761.173 290.987c-27.307-6.827-194.56-6.827-221.867 0-34.133 6.827-40.96 68.267-40.96 68.267h307.2c-3.413 0-10.24-61.44-44.373-68.267zM921.6 290.987v0h-98.987l13.653 64.853 58.027 34.133c0 0 13.653 3.413 23.893 3.413 27.307 0 51.2-23.893 51.2-51.2s-23.893-47.787-47.787-51.2zM1437.013 652.8c10.24 10.24-3.413 27.307-17.067 37.547-6.827 6.827-40.96 10.24-64.853 10.24-27.307 51.2-75.093 129.707-85.333 139.947s-187.733 10.24-232.107 13.653c-44.373 0-204.8 0-218.453-13.653-6.827-6.827-30.72-51.2-51.2-95.573 27.307 0 47.787-3.413 61.44-3.413 10.24 17.067 17.067 34.133 23.893 47.787 27.307 3.413 81.92 3.413 160.427 6.827 6.827 0 17.067 0 20.48 0 6.827 0 13.653 0 23.893 0 88.747 0 146.773-3.413 174.080-6.827 20.48-30.72 61.44-98.987 75.093-129.707h-351.573c13.653-20.48 27.307-44.373 37.547-61.44 34.133-3.413 54.613-13.653 71.68-27.307 13.653-13.653 20.48-23.893 27.307-37.547h116.053c0 0-10.24-61.44-40.96-68.267-10.24-3.413-37.547-3.413-68.267-3.413-3.413-13.653-10.24-20.48-17.067-27.307-3.413-6.827-10.24-10.24-17.067-13.653 10.24-40.96 20.48-78.507 23.893-95.573v-37.547c85.333 0 163.84 0 211.627 3.413v-58.027c0-6.827 6.827-13.653 13.653-13.653h71.68c6.827 0 13.653 6.827 13.653 13.653v71.68c23.893 13.653 23.893 40.96 23.893 40.96v146.773c0 0 0 23.893-37.547 136.533-3.413 6.827-3.413 13.653-6.827 20.48h37.547c3.413 0 17.067 0 20.48 3.413zM1327.787 465.067v0h-98.987l13.653 64.853 58.027 34.133c0 0 13.653 3.413 23.893 3.413 27.307 0 51.2-23.893 51.2-51.2s-23.893-47.787-47.787-51.2z" />
<glyph unicode="&#xe90d;" glyph-name="icon-navigation-close" d="M670.72 448l348.16 363.52c10.24 10.24 10.24 25.6 0 35.84l-102.4 102.4c-10.24 10.24-25.6 10.24-35.84 0l-368.64-348.16-363.52 348.16c-10.24 10.24-25.6 10.24-35.84 0l-102.4-102.4c-10.24-10.24-10.24-25.6-5.12-35.84l353.28-363.52-348.16-363.52c-10.24-10.24-10.24-25.6 0-35.84l102.4-102.4c10.24-10.24 25.6-10.24 35.84 0l363.52 348.16 363.52-348.16c10.24-10.24 25.6-10.24 35.84 0l102.4 102.4c10.24 10.24 10.24 25.6 0 35.84l-343.040 363.52z" />
<glyph unicode="&#xe90e;" glyph-name="icon-navigation-configure" horiz-adv-x="1707" d="M1239.040 492.373c-10.24 34.133-13.653 54.613-23.893 88.747l58.027 129.707c-40.96 47.787-44.373 54.613-85.333 102.4l-139.947-37.547c-30.72 13.653-54.613 23.893-85.333 37.547l-64.853 129.707c-61.44-3.413-71.68-3.413-133.12-3.413l-54.613-133.12c-30.72-17.067-51.2-27.307-81.92-40.96l-139.947 30.72c-37.547-51.2-40.96-58.027-78.507-109.227l68.267-126.293c-6.827-34.133-10.24-58.027-17.067-92.16l-109.227-92.16c17.067-61.44 17.067-68.267 34.133-129.707l139.947-27.307c23.893-27.307 37.547-44.373 61.44-71.68l3.413-143.36c58.027-23.893 64.853-27.307 122.88-54.613l109.227 95.573c34.133 0 58.027 0 92.16 3.413l116.053-88.747c54.613 27.307 61.44 34.133 116.053 61.44l-6.827 143.36c20.48 27.307 34.133 47.787 54.613 75.093l139.947 34.133c10.24 61.44 13.653 68.267 23.893 129.707l-119.467 88.747zM853.333 212.48c-129.707 0-235.52 105.813-235.52 235.52s105.813 235.52 235.52 235.52c129.707 0 235.52-105.813 235.52-235.52s-105.813-235.52-235.52-235.52z" />
<glyph unicode="&#xe90f;" glyph-name="icon-navigation-corporate-topics" horiz-adv-x="1707" d="M1310.72 659.627v6.827c0 13.653-10.24 23.893-23.893 23.893h-232.107v81.92c0 37.547-30.72 71.68-68.267 71.68h-262.827c-37.547 0-68.267-30.72-68.267-71.68v-81.92h-232.107c-13.653 0-23.893-10.24-23.893-23.893v-6.827l153.6-228.693h607.573l150.187 228.693zM962.56 690.347h-218.453v64.853h218.453v-64.853zM1191.253 366.080h-215.040v-34.133c0-47.787-40.96-88.747-88.747-88.747h-71.68c-47.787 0-88.747 40.96-88.747 88.747v34.133h-215.040l-119.467 177.493v-467.627c0-13.653 10.24-23.893 23.893-23.893h863.573c13.653 0 23.893 10.24 23.893 23.893v467.627l-112.64-177.493zM815.787 308.053h71.68c13.653 0 23.893 10.24 23.893 23.893v34.133h-122.88v-34.133c3.413-13.653 13.653-23.893 27.307-23.893z" />
<glyph unicode="&#xe910;" glyph-name="icon-navigation-dealer" horiz-adv-x="1707" d="M860.16 591.36c95.573 0 157.013 58.027 157.013 157.013 0 95.573-40.96 174.080-157.013 174.080s-157.013-78.507-157.013-174.080c0-95.573 61.44-157.013 157.013-157.013zM1187.84 178.347c-3.413 249.173-51.2 341.333-221.867 365.227-27.307-20.48-61.44-30.72-102.4-30.72-44.373 0-78.507 10.24-105.813 34.133-177.493-20.48-232.107-112.64-235.52-361.813 0-10.24 0-17.067 0-27.307v-126.293c0-13.653 10.24-23.893 20.48-23.893 0 0 71.68-34.133 314.027-34.133s310.613 34.133 310.613 34.133c10.24 0 20.48 10.24 20.48 23.893v105.813c0 13.653 0 20.48 0 20.48 0 6.827 0 13.653 0 20.48zM863.573 123.733c-6.827-6.827-17.067-6.827-23.893 0l-51.2 61.44 47.787 279.893h34.133l47.787-279.893-54.613-61.44z" />
<glyph unicode="&#xe911;" glyph-name="icon-navigation-get-your-volkswagen" horiz-adv-x="1707" d="M1064.96 857.6c-122.88 0-211.627-92.16-211.627-92.16s-88.747 92.16-211.627 92.16c-194.56 0-522.24-426.667 211.627-819.2 733.867 392.533 406.187 819.2 211.627 819.2zM1041.067 427.52c-44.373-40.96-75.093-58.027-105.813-54.613-20.48 3.413-37.547 13.653-58.027 30.72l-153.6-139.947c-13.653-13.653-37.547-13.653-51.2 3.413l-13.653 10.24c-13.653 13.653-13.653 37.547 3.413 51.2l153.6 139.947c-44.373 61.44-34.133 98.987 37.547 163.84 44.373 40.96 75.093 58.027 105.813 54.613 27.307-3.413 54.613-23.893 88.747-61.44 75.093-81.92 71.68-122.88-6.827-197.973zM952.32 635.733c-13.653 0-34.133-13.653-64.853-40.96s-47.787-47.787-47.787-61.44c0-13.653 13.653-34.133 40.96-64.853s47.787-44.373 58.027-47.787c13.653 0 34.133 13.653 64.853 40.96s47.787 47.787 47.787 61.44c0 13.653-13.653 34.133-40.96 64.853s-44.373 47.787-58.027 47.787z" />
<glyph unicode="&#xe912;" glyph-name="icon-navigation-get-your-volkswagen-2" horiz-adv-x="1707" d="M1365.333 192v61.44c0 0-10.24 27.307-47.787 68.267-23.893 23.893-34.133 34.133-34.133 34.133l10.24 10.24v6.827c0 0-143.36 30.72-354.987 27.307s-324.267-112.64-324.267-112.64-163.84-13.653-238.933-51.2c-30.72-17.067-44.373-71.68-44.373-71.68l-13.653-20.48v-71.68c0 0 30.72-20.48 109.227-20.48 3.413 0 3.413 0 6.827 0 10.24-30.72 40.96-54.613 75.093-54.613s64.853 23.893 75.093 54.613c157.013 0 392.533 0 549.547 0 10.24-30.72 40.96-54.613 75.093-54.613s64.853 23.893 75.093 54.613c10.24 0 13.653 0 13.653 0s78.507 6.827 78.507 51.2c0 44.373 0 61.44 0 61.44l-10.24 27.307zM331.093 488.96c10.24-44.373 13.653-51.2 23.893-92.16l102.4-20.48c13.653-17.067 23.893-30.72 40.96-47.787 37.547 6.827 75.093 10.24 95.573 13.653 10.24 10.24 27.307 20.48 51.2 34.133-68.267 20.48-119.467 85.333-119.467 163.84 0 95.573 75.093 170.667 170.667 170.667s170.667-75.093 170.667-170.667c0-34.133-10.24-68.267-27.307-92.16 30.72 6.827 64.853 10.24 98.987 10.24 17.067 0 30.72 0 47.787 0 23.893 0 44.373 0 64.853 0 3.413 13.653 6.827 27.307 10.24 54.613l-85.333 61.44c-6.827 23.893-10.24 40.96-17.067 64.853l44.373 95.573c-30.72 34.133-34.133 37.547-61.44 75.093l-98.987-27.307c-23.893 10.24-37.547 17.067-61.44 27.307l-47.787 92.16c-44.373 0-51.2 0-95.573-3.413l-40.96-95.573c-23.893-10.24-37.547-20.48-58.027-30.72l-102.4 20.48c-27.307-37.547-30.72-40.96-58.027-78.507l51.2-92.16c-3.413-23.893-6.827-40.96-13.653-64.853l-85.333-68.267z" />
<glyph unicode="&#xe913;" glyph-name="icon-navigation-home" horiz-adv-x="1707" d="M1262.933 448l-409.6 409.6-184.32-184.32v92.16h-98.987v-194.56l-126.293-122.88c-6.827-6.827-3.413-20.48 6.827-20.48h85.333v-365.227c0-13.653 10.24-23.893 23.893-23.893h307.2v242.347h157.013v-242.347h119.467c13.653 0 23.893 10.24 23.893 23.893v365.227h85.333c13.653 0 17.067 10.24 10.24 20.48z" />
<glyph unicode="&#xe914;" glyph-name="icon-link-upload" d="M984.615 345.6h-102.4c-7.877 0-23.631-7.877-23.631-23.631v-7.877c0-70.892 0-173.292-39.385-204.8-31.508-31.508-118.154-31.508-244.185-31.508-39.385 0-86.646 0-126.031 0-126.031 0-220.554 0-244.185 31.508-31.508 31.508-39.385 133.908-39.385 204.8v15.754c0 7.877-7.877 23.631-23.631 23.631h-102.4c-7.877-7.877-23.631-15.754-23.631-23.631v-7.877c0-141.785 15.754-244.185 78.769-307.2 78.769-78.769 189.046-78.769 354.462-78.769 39.385 0 86.646 0 126.031 0 15.754 0 31.508 0 47.262 0 141.785 0 236.308 7.877 299.323 70.892s78.769 173.292 78.769 307.2v15.754c7.877 7.877-7.877 15.754-15.754 15.754zM267.815 644.923h133.908l15.754-315.077c0-15.754 15.754-23.631 23.631-23.631h126.031c15.754 0 23.631 7.877 23.631 23.631l15.754 315.077h133.908c15.754 0 23.631 15.754 15.754 31.508l-236.308 275.692c0 7.877-15.754 7.877-23.631 0l-236.308-275.692c-15.754-15.754-7.877-31.508 7.877-31.508z" />
<glyph unicode="&#xe915;" glyph-name="icon-link-view" d="M512 786.708c-338.708 0-512-330.831-512-330.831s173.292-346.585 512-346.585c338.708 0 512 346.585 512 346.585s-173.292 330.831-512 330.831zM512 188.062c-141.785 0-259.938 118.154-259.938 259.938s118.154 259.938 259.938 259.938c141.785 0 259.938-118.154 259.938-259.938s-118.154-259.938-259.938-259.938zM512 448c0 0 39.385 55.138 78.769 94.523 7.877 7.877 7.877 23.631 0 23.631-23.631 15.754-47.262 23.631-70.892 23.631-63.015 0-118.154-31.508-141.785-86.646-31.508-86.646 23.631-181.169 118.154-196.923 47.262-7.877 102.4 15.754 133.908 55.138 15.754 23.631 23.631 47.262 23.631 70.892 0 7.877-7.877 15.754-15.754 15.754h-126.031z" />
<glyph unicode="&#xe916;" glyph-name="icon-link-website" d="M953.108 865.477h-882.215c-39.385 0-70.892-31.508-70.892-70.892v-543.508c0-39.385 31.508-78.769 70.892-78.769h283.569v-63.015c0-23.631-15.754-39.385-39.385-39.385h-39.385v-47.262h472.615v47.262h-47.262c-23.631 0-39.385 15.754-39.385 39.385v63.015h283.569c47.262 0 78.769 39.385 78.769 78.769v543.508c0 39.385-31.508 70.892-70.892 70.892zM929.477 778.831v-448.985h-834.954v448.985h834.954z" />
<glyph unicode="&#xe917;" glyph-name="icon-link-write" d="M874.338 763.077l-39.385 39.385c-15.754 23.631-47.262 31.508-70.892 31.508 0 0-7.877 0-7.877 0l-661.662-645.908-94.523-204.8c-7.877-23.631 15.754-47.262 39.385-39.385l204.8 86.646 653.785 645.908c7.877 31.508 0 63.015-23.631 86.646zM1000.369 896.985l-23.631 23.631c-31.508 39.385-94.523 39.385-126.031 0l-31.508-31.508c23.631-7.877 55.138-23.631 70.892-39.385l39.385-39.385c23.631-23.631 39.385-47.262 39.385-78.769l39.385 39.385c23.631 31.508 23.631 94.523-7.877 126.031z" />
<glyph unicode="&#xe918;" glyph-name="icon-link-mail" d="M504.123 408.615l519.877 315.077v55.138c0 15.754-15.754 31.508-31.508 31.508h-960.985c-15.754 0-31.508-15.754-31.508-31.508v-63.015l504.123-307.2zM504.123 337.723l-504.123 307.2v-527.754c0-15.754 15.754-31.508 31.508-31.508h960.985c15.754 0 31.508 15.754 31.508 31.508v535.631l-519.877-315.077z" />
<glyph unicode="&#xe919;" glyph-name="icon-link-phone" d="M827.077 960c-149.662-15.754-315.077-157.538-488.369-330.831s-322.954-346.585-338.708-488.369c-7.877-102.4 118.154-181.169 157.538-196.923 7.877-7.877 15.754 0 23.631 7.877l141.785 189.046c7.877 7.877 0 15.754 0 15.754-31.508 31.508-39.385 47.262-39.385 70.892-15.754 70.892 55.138 165.415 165.415 283.569 118.154 118.154 228.431 181.169 283.569 173.292 23.631-7.877 47.262-23.631 78.769-47.262 7.877-7.877 15.754-7.877 15.754 0l181.169 133.908c15.754 7.877 15.754 31.508 7.877 47.262-23.631 47.262-94.523 149.662-189.046 141.785z" />
<glyph unicode="&#xe91a;" glyph-name="icon-link-pin" d="M512 960c-299.323 0-370.215-70.892-370.215-370.215 0-259.938 291.446-575.015 354.462-645.908 7.877-7.877 23.631-7.877 31.508 0 70.892 70.892 354.462 393.846 354.462 645.908 0 299.323-70.892 370.215-370.215 370.215zM512 518.892c-63.015 0-110.277 47.262-110.277 110.277s47.262 110.277 110.277 110.277c63.015 0 110.277-47.262 110.277-110.277s-47.262-110.277-110.277-110.277z" />
<glyph unicode="&#xe91b;" glyph-name="icon-link-print" d="M834.954 794.585c0 7.877-7.877 15.754-15.754 15.754h-614.4c-7.877 0-15.754-7.877-15.754-15.754v-110.277h645.908v110.277zM236.308 148.677v0-63.015h559.262v204.8h-559.262zM992.492 621.292h-960.985c-15.754 0-31.508-7.877-31.508-23.631v-417.477c0-15.754 15.754-31.508 31.508-31.508h149.662v141.785c0 31.508 23.631 55.138 55.138 55.138h567.138c31.508 0 55.138-23.631 55.138-55.138v-133.908h141.785c15.754 0 31.508 15.754 31.508 31.508v409.6c-7.877 15.754-23.631 23.631-39.385 23.631zM212.677 463.754h-78.769c-23.631 0-39.385 15.754-39.385 39.385s15.754 39.385 39.385 39.385h78.769c23.631 0 39.385-15.754 39.385-39.385-7.877-23.631-23.631-39.385-39.385-39.385z" />
<glyph unicode="&#xe91c;" glyph-name="icon-link-reload" d="M803.446 345.6c-7.877-157.538-141.785-275.692-307.2-275.692-149.662 7.877-267.815 126.031-275.692 275.692-7.877 173.292 126.031 315.077 291.446 315.077h47.262v-149.662c0-15.754 15.754-23.631 23.631-15.754l252.062 220.554c7.877 7.877 7.877 23.631 0 31.508l-252.062 204.8c-7.877 15.754-23.631 7.877-23.631-7.877v-149.662h-39.385c-236.308 0-433.231-181.169-441.108-409.6-7.877-244.185 189.046-448.985 433.231-448.985 228.431 0 417.477 181.169 433.231 409.6 0 7.877-7.877 23.631-23.631 23.631h-102.4c-7.877 0-15.754-7.877-15.754-23.631z" />
<glyph unicode="&#xe91d;" glyph-name="icon-link-route" d="M740.431 676.431c-7.877 7.877-15.754 7.877-23.631 0l-204.8-126.031-102.4-102.4-133.908-204.8c-7.877-7.877-7.877-15.754 0-23.631v0c7.877-7.877 15.754-7.877 23.631 0l204.8 126.031 102.4 102.4 133.908 204.8c7.877 7.877 7.877 15.754 0 23.631v0zM504.123 392.862l-15.754-23.631c0 0 0 0 0 0l-141.785-94.523c-7.877-7.877-15.754 0-7.877 7.877l102.4 133.908c0 0 0 0 0 0l15.754 15.754c0 0 7.877 0 7.877 0l39.385-39.385c7.877 7.877 7.877 0 0 0zM512 960c-283.569 0-512-228.431-512-512s228.431-512 512-512c283.569 0 512 228.431 512 512s-228.431 512-512 512zM512 46.277c-220.554 0-401.723 181.169-401.723 401.723s181.169 401.723 401.723 401.723c220.554 0 401.723-181.169 401.723-401.723s-181.169-401.723-401.723-401.723z" />
<glyph unicode="&#xe91e;" glyph-name="icon-link-search" d="M913.723 849.723c-63.015 70.892-157.538 110.277-252.062 110.277-102.4 0-189.046-39.385-259.938-102.4-70.892-70.892-102.4-157.538-102.4-259.938 0-63.015 15.754-126.031 47.262-173.292l-322.954-322.954c-31.508-31.508-31.508-86.646 0-118.154l23.631-23.631c31.508-31.508 86.646-31.508 118.154 0l322.954 322.954c55.138-31.508 110.277-47.262 173.292-47.262 94.523 0 189.046 39.385 252.062 102.4 70.892 70.892 110.277 157.538 110.277 259.938 0 94.523-39.385 189.046-110.277 252.062zM827.077 424.369c-39.385-39.385-102.4-63.015-165.415-63.015s-126.031 23.631-173.292 70.892c-39.385 39.385-63.015 102.4-63.015 165.415s23.631 126.031 70.892 165.415c47.262 47.262 102.4 70.892 165.415 70.892s126.031-23.631 173.292-70.892c47.262-47.262 70.892-102.4 70.892-165.415-7.877-63.015-31.508-126.031-78.769-173.292z" />
<glyph unicode="&#xe91f;" glyph-name="icon-link-standardlink" d="M1016.123 424.369c15.754 15.754 15.754 39.385 0 47.262l-441.108 378.092c-15.754 15.754-47.262 0-47.262-23.631v-212.677l-488.369-31.508c-23.631 0-39.385-15.754-39.385-39.385v-189.046c0-23.631 15.754-39.385 39.385-39.385l488.369-23.631v-212.677c0-23.631 31.508-39.385 47.262-23.631l441.108 370.215z" />
<glyph unicode="&#xe920;" glyph-name="icon-arrow-down" d="M1016.123 605.538l-480.492-480.492c-15.754-15.754-47.262-15.754-63.015 0l-464.738 480.492c-7.877 7.877-7.877 15.754 0 23.631l141.785 141.785c7.877 7.877 15.754 7.877 23.631 0l346.585-346.585 346.585 346.585c7.877 7.877 15.754 7.877 23.631 0l141.785-141.785c-7.877-7.877-7.877-15.754-15.754-23.631z" />
<glyph unicode="&#xe921;" glyph-name="icon-arrow-up" d="M7.877 290.462l480.492 480.492c15.754 15.754 47.262 15.754 63.015 0l480.492-480.492c7.877-7.877 7.877-15.754 0-23.631l-141.785-141.785c-7.877-7.877-15.754-7.877-23.631 0l-354.462 338.708-346.585-346.585c-7.877-7.877-15.754-7.877-23.631 0l-133.908 149.662c-7.877 7.877-7.877 15.754 0 23.631z" />
<glyph unicode="&#xe922;" glyph-name="icon-arrow-left" d="M669.538-56.123l-472.615 472.615c-15.754 15.754-15.754 47.262 0 63.015l480.492 480.492c0 0 7.877 0 15.754-7.877l141.785-141.785c7.877-7.877 7.877-15.754 0-23.631l-338.708-338.708 346.585-346.585c7.877-7.877 7.877-15.754 0-23.631l-141.785-141.785c-15.754 0-23.631 0-31.508 7.877z" />
<glyph unicode="&#xe923;" glyph-name="icon-arrow-right" d="M354.462 952.123l480.492-480.492c15.754-15.754 15.754-47.262 0-63.015l-480.492-480.492c-7.877-7.877-15.754-7.877-23.631 0l-141.785 141.785c-7.877 7.877-7.877 15.754 0 23.631l346.585 346.585-346.585 354.462c-7.877 0-7.877 7.877 0 15.754l141.785 141.785c7.877 7.877 15.754 7.877 23.631 0z" />
<glyph unicode="&#xe924;" glyph-name="icon-arrow-down-double" d="M945.231 353.477l-401.723-401.723c-15.754-15.754-39.385-15.754-55.138 0l-409.6 401.723c0 0 0 7.877 0 15.754l126.031 118.154c7.877 7.877 15.754 7.877 15.754 0l291.446-291.446 291.446 291.446c7.877 7.877 15.754 7.877 15.754 0l126.031-118.154c0-7.877 0-15.754 0-15.754zM945.231 818.215l-409.6-401.723c-15.754-15.754-39.385-15.754-55.138 0l-401.723 401.723c0 0 0 7.877 0 15.754l126.031 126.031c7.877 0 15.754 0 15.754 0l291.446-291.446 291.446 291.446c0 0 7.877 0 15.754 0l126.031-126.031c0-7.877 0-15.754 0-15.754z" />
<glyph unicode="&#xe925;" glyph-name="icon-arrow-up-double" d="M78.769 542.523l401.723 401.723c23.631 15.754 39.385 15.754 55.138 7.877l409.6-409.6c0 0 0-7.877 0-15.754l-126.031-118.154c-7.877-7.877-15.754-7.877-15.754 0l-291.446 291.446-291.446-291.446c0-7.877-7.877-7.877-15.754 0l-126.031 118.154c0 7.877 0 15.754 0 15.754zM78.769 77.785l401.723 401.723c15.754 15.754 39.385 15.754 55.138 0l401.723-401.723c7.877-7.877 7.877-15.754 0-15.754l-118.154-126.031c-7.877-7.877-15.754-7.877-15.754 0l-291.446 291.446-291.446-291.446c0 0-7.877 0-15.754 0l-126.031 126.031c0 7.877 0 15.754 0 15.754z" />
<glyph unicode="&#xe926;" glyph-name="icon-arrow-left-double" d="M417.477 14.769l-409.6 409.6c-7.877 15.754-7.877 31.508 0 47.262l409.6 409.6c0 0 7.877 0 15.754 0l118.154-126.031c7.877-7.877 7.877-15.754 0-15.754l-291.446-291.446 291.446-291.446c7.877-7.877 7.877-15.754 0-15.754l-118.154-126.031c-7.877 0-15.754 0-15.754 0zM882.215 14.769l-401.723 409.6c-15.754 15.754-15.754 39.385 0 55.138l401.723 401.723c0 0 7.877 0 15.754 0l126.031-126.031c0-7.877 0-15.754 0-15.754l-291.446-291.446 291.446-291.446c7.877-7.877 7.877-15.754 0-15.754l-126.031-126.031c-7.877 0-15.754 0-15.754 0z" />
<glyph unicode="&#xe927;" glyph-name="icon-arrow-right-double" d="M606.523 881.231l401.723-401.723c15.754-15.754 15.754-39.385 0-55.138l-401.723-409.6c0 0-7.877 0-15.754 0l-118.154 126.031c-7.877 7.877-7.877 15.754 0 15.754l291.446 291.446-291.446 291.446c-7.877 0-7.877 7.877 0 15.754l118.154 126.031c7.877 0 15.754 0 15.754 0zM141.785 881.231l401.723-401.723c15.754-15.754 15.754-39.385 0-55.138l-401.723-409.6c0 0-7.877 0-15.754 0l-126.031 126.031c0 7.877 0 15.754 0 15.754l291.446 291.446-291.446 291.446c0 0 0 7.877 0 15.754l126.031 126.031c7.877 0 15.754 0 15.754 0z" />
<glyph unicode="&#xe928;" glyph-name="icon-quickaccess-preowned" d="M750.933 676.693l-71.68-102.4h51.2c-3.413-40.96-44.373-71.68-85.333-64.853-34.133 3.413-61.44 34.133-64.853 64.853-3.413 40.96 23.893 78.507 64.853 85.333 6.827 0 13.653 6.827 13.653 13.653v13.653c0 6.827-6.827 13.653-13.653 13.653-58.027-6.827-102.4-58.027-98.987-119.467 3.413-58.027 47.787-105.813 105.813-109.227 64.853-3.413 116.053 44.373 122.88 105.813h44.373l-68.267 98.987zM658.773 437.76c-3.413 0-6.827 0-10.24 0-34.133 3.413-64.853 17.067-88.747 37.547h-276.48c6.827 17.067 27.307 61.44 40.96 81.92 17.067 0 51.2 3.413 102.4 3.413 6.827 0 10.24 0 13.653 0s10.24 0 13.653 0c23.893 0 44.373 0 61.44 0 0 6.827 0 10.24-3.413 17.067 0 6.827 0 13.653 0 20.48-30.72 0-61.44 0-71.68 0-27.307 0-129.707 0-136.533-6.827s-30.72-54.613-44.373-88.747c-13.653 0-34.133 0-37.547-6.827-6.827-6.827-17.067-17.067-10.24-23.893 3.413-3.413 10.24-3.413 10.24-3.413h23.893c0-3.413-3.413-10.24-3.413-13.653-23.893-71.68-23.893-85.333-23.893-85.333v-92.16c0 0 0-17.067 17.067-27.307v-44.373c0-3.413 3.413-10.24 10.24-10.24h44.373c3.413 0 10.24 3.413 10.24 10.24v37.547c64.853-3.413 242.347-3.413 310.613 0v-37.547c0-3.413 3.413-10.24 10.24-10.24h44.373c3.413 0 10.24 3.413 10.24 10.24v44.373c6.827 10.24 6.827 27.307 6.827 27.307v92.16c0 0 0 10.24-17.067 68.267-3.413 0-6.827 0-6.827 0zM276.48 355.84v0c-17.067 0-30.72 13.653-30.72 34.133 0 17.067 13.653 34.133 34.133 34.133 3.413 0 13.653-3.413 13.653-3.413l37.547-20.48 6.827-40.96h-61.44zM518.827 352.427c-17.067-3.413-122.88-3.413-139.947 0-20.48 3.413-27.307 44.373-27.307 44.373h194.56c0 0-6.827-37.547-27.307-44.373zM621.227 355.84v0h-61.44l6.827 40.96 37.547 20.48c0 0 10.24 3.413 13.653 3.413 17.067 0 34.133-13.653 34.133-34.133 0-17.067-13.653-30.72-30.72-30.72z" />
<glyph unicode="&#xe929;" glyph-name="icon-quickaccess-print" d="M706.56 652.8c0 6.827-3.413 10.24-10.24 10.24h-365.227c-6.827 3.413-13.653-3.413-13.653-10.24v-64.853h385.707v64.853zM344.747 270.507v0-40.96h337.92v122.88h-337.92zM802.133 553.813h-580.267c-10.24 0-17.067-6.827-17.067-17.067v-249.173c0-10.24 6.827-17.067 17.067-17.067h88.747v81.92c0 17.067 13.653 34.133 34.133 34.133h337.92c17.067 0 34.133-13.653 34.133-34.133v-81.92h85.333c10.24 0 17.067 6.827 17.067 17.067v249.173c0 10.24-6.827 17.067-17.067 17.067zM331.093 458.24h-51.2c-13.653 0-23.893 10.24-23.893 23.893s10.24 23.893 23.893 23.893h47.787c13.653 0 23.893-10.24 23.893-23.893 3.413-13.653-6.827-23.893-20.48-23.893z" />
<glyph unicode="&#xe92a;" glyph-name="icon-quickaccess-profile" d="M727.040 273.92c-3.413 160.427-34.133 221.867-143.36 235.52-17.067-13.653-40.96-20.48-68.267-20.48s-51.2 6.827-68.267 20.48c-116.053-13.653-150.187-71.68-150.187-235.52 0-6.827 0-10.24 0-17.067v-78.507c0-10.24 6.827-17.067 13.653-17.067 0 0 47.787-20.48 204.8-20.48s201.387 20.48 201.387 20.48c6.827 0 13.653 6.827 13.653 17.067v68.267c0 10.24 0 13.653 0 13.653-3.413 3.413-3.413 10.24-3.413 13.653zM515.413 540.16c61.44 0 98.987 37.547 98.987 98.987s-27.307 112.64-98.987 112.64c-75.093 0-98.987-51.2-98.987-112.64 0-58.027 37.547-98.987 98.987-98.987z" />
<glyph unicode="&#xe92b;" glyph-name="icon-quickaccess-question-mark" d="M447.147 366.080l-3.413 105.813c75.093 23.893 129.707 61.44 129.707 112.64 0 34.133-27.307 64.853-75.093 64.853-40.96 0-71.68-17.067-98.987-40.96-13.653-10.24-34.133-10.24-44.373 6.827l-23.893 34.133c-10.24 13.653-10.24 30.72 3.413 40.96 37.547 30.72 95.573 64.853 163.84 64.853 126.293 0 201.387-61.44 201.387-163.84 0-95.573-85.333-150.187-143.36-177.493l-6.827-51.2c-3.413-10.24-13.653-17.067-23.893-17.067h-54.613c-10.24 0-23.893 10.24-23.893 20.48zM570.027 212.48c0-39.588-32.092-71.68-71.68-71.68s-71.68 32.092-71.68 71.68c0 39.588 32.092 71.68 71.68 71.68s71.68-32.092 71.68-71.68z" />
<glyph unicode="&#xe92c;" glyph-name="icon-quickaccess-reload" d="M686.080 386.56c-6.827-92.16-85.333-167.253-184.32-163.84-88.747 3.413-160.427 78.507-167.253 167.253-3.413 98.987 75.093 184.32 174.080 184.32h27.307v-92.16c0-6.827 10.24-13.653 17.067-6.827l150.187 129.707c6.827 3.413 6.827 13.653 0 17.067l-150.187 129.707c-6.827 6.827-17.067 0-17.067-6.827v-88.747h-20.48c-139.947 0-259.413-109.227-262.827-249.173-3.413-146.773 112.64-266.24 259.413-266.24 136.533 0 252.587 109.227 256 245.76 0 6.827-6.827 13.653-10.24 13.653h-58.027c-6.827 0-13.653-6.827-13.653-13.653z" />
<glyph unicode="&#xe92d;" glyph-name="icon-quickaccess-responsibility" d="M682.667 591.36c10.24 20.48 13.653 44.373 6.827 71.68-10.24 40.96-37.547 75.093-78.507 85.333-54.613 17.067-112.64-10.24-136.533-61.44-13.653 20.48-34.133 34.133-61.44 34.133-37.547 0-71.68-20.48-85.333-54.613s-3.413-71.68 20.48-92.16c-34.133-17.067-58.027-54.613-61.44-95.573-3.413-47.787 27.307-95.573 75.093-109.227 30.72-10.24 61.44-6.827 85.333 3.413 3.413 13.653 6.827 23.893 6.827 37.547 0 3.413 0 3.413 3.413 6.827-6.827 6.827-13.653 13.653-23.893 23.893-34.133 44.373-20.48 102.4-20.48 102.4s6.827-44.373 34.133-75.093c10.24-10.24 17.067-17.067 23.893-23.893 40.96 98.987 102.4 157.013 102.4 157.013-10.24-13.653-61.44-139.947-78.507-252.587-13.653-88.747-10.24-180.907-6.827-204.8 0-3.413 3.413-3.413 6.827-3.413h54.613c3.413 0 6.827 3.413 6.827 6.827-3.413 20.48-20.48 98.987-10.24 191.147 3.413 0 10.24-3.413 13.653-3.413 81.92-13.653 157.013 40.96 174.080 119.467 6.827 51.2-13.653 105.813-51.2 136.533z" />
<glyph unicode="&#xe92e;" glyph-name="icon-quickaccess-route" d="M648.533 584.533c-3.413 3.413-10.24 3.413-13.653 0l-122.88-75.093-61.44-61.44-78.507-122.88c-3.413-3.413-3.413-10.24 0-13.653v0c3.413-3.413 10.24-3.413 13.653 0l122.88 78.507 61.44 61.44 78.507 122.88c6.827 0 6.827 6.827 0 10.24v0zM508.587 413.867l-10.24-10.24c0 0 0 0 0 0l-85.333-58.027c-3.413-3.413-10.24 3.413-6.827 6.827l58.027 81.92c0 0 0 0 0 0l10.24 10.24c3.413 3.413 3.413 3.413 6.827 0l23.893-23.893c6.827 0 6.827-3.413 3.413-6.827zM512 755.2c-170.667 0-307.2-136.533-307.2-307.2s136.533-307.2 307.2-307.2c170.667 0 307.2 136.533 307.2 307.2s-136.533 307.2-307.2 307.2zM512 209.067c-133.12 0-238.933 109.227-238.933 238.933s109.227 238.933 238.933 238.933c133.12 0 238.933-109.227 238.933-238.933s-105.813-238.933-238.933-238.933z" />
<glyph unicode="&#xe92f;" glyph-name="icon-quickaccess-search" d="M754.347 690.347c-40.96 40.96-95.573 64.853-153.6 64.853s-112.64-23.893-153.6-61.44c-40.96-40.96-64.853-95.573-61.44-153.6 0-37.547 10.24-75.093 27.307-105.813l-191.147-191.147c-20.48-20.48-20.48-51.2 0-71.68l13.653-13.653c20.48-20.48 51.2-20.48 71.68 0l191.147 191.147c30.72-17.067 68.267-27.307 105.813-27.307 58.027 0 112.64 23.893 153.6 61.44 40.96 40.96 64.853 95.573 61.44 153.6 0 58.027-23.893 112.64-64.853 153.6zM703.147 434.347c-27.307-27.307-61.44-40.96-98.987-40.96s-75.093 13.653-102.4 40.96c-27.307 27.307-40.96 61.44-40.96 102.4 0 37.547 13.653 75.093 40.96 98.987 27.307 27.307 61.44 40.96 98.987 40.96s75.093-13.653 102.4-40.96c27.307-27.307 40.96-61.44 40.96-102.4 0-34.133-13.653-71.68-40.96-98.987z" />
<glyph unicode="&#xe930;" glyph-name="icon-quickaccess-service" d="M798.72 628.907l-81.92-81.92-85.333 20.48-23.893 85.333 85.333 85.333-20.48 17.067c-40.96 0-81.92-13.653-112.64-44.373-44.373-44.373-54.613-105.813-34.133-157.013l-307.2-307.2c-20.48-20.48-20.48-54.613 0-78.507l13.653-13.653c20.48-20.48 54.613-20.48 75.093 0l307.2 307.2c54.613-20.48 116.053-6.827 160.427 34.133 30.72 30.72 44.373 71.68 44.373 112.64l-20.48 20.48z" />
<glyph unicode="&#xe931;" glyph-name="icon-quickaccess-share" d="M812.373 475.307l-201.387 174.080c-6.827 6.827-20.48 0-20.48-10.24v-88.747c-54.613-3.413-191.147-23.893-276.48-109.227-112.64-112.64-109.227-197.973-109.227-197.973h17.067c0 0 61.44 85.333 180.907 122.88 81.92 23.893 150.187 27.307 187.733 27.307v-105.813c0-10.24 13.653-17.067 20.48-10.24l201.387 174.080c10.24 6.827 10.24 17.067 0 23.893z" />
<glyph unicode="&#xe932;" glyph-name="icon-quickaccess-social-facebook" d="M576.853 645.973c20.48 13.653 95.573 6.827 95.573 6.827v95.573c0 0-119.467 20.48-174.080-20.48s-51.2-119.467-51.2-119.467v-81.92h-92.16v-109.227h92.16v-276.48h112.64v279.893h92.16l13.653 109.227h-105.813v81.92c0 0-3.413 23.893 17.067 34.133z" />
<glyph unicode="&#xe933;" glyph-name="icon-quickaccess-social-googleplus" d="M610.987 755.2c-54.613 0-112.64 0-167.253 0-23.893 0-44.373-3.413-68.267-6.827-75.093-17.067-112.64-61.44-122.88-133.12-6.827-64.853 30.72-119.467 92.16-136.533 20.48-6.827 44.373-6.827 64.853-3.413-13.653-30.72-6.827-58.027 17.067-85.333-3.413 0-6.827 0-10.24 0-30.72-3.413-58.027-6.827-88.747-13.653-34.133-6.827-64.853-23.893-88.747-47.787-44.373-51.2-34.133-119.467 20.48-157.013 13.653-6.827 23.893-13.653 37.547-20.48 47.787-17.067 98.987-17.067 150.187-6.827 44.373 6.827 81.92 23.893 112.64 58.027 23.893 23.893 37.547 51.2 37.547 81.92 3.413 37.547-13.653 68.267-40.96 95.573-17.067 17.067-37.547 30.72-58.027 47.787-23.893 20.48-23.893 40.96-3.413 64.853 10.24 10.24 20.48 20.48 30.72 27.307 61.44 51.2 54.613 143.36 0 191.147-3.413 3.413-3.413 3.413-6.827 6.827 3.413 0 3.413 0 6.827 0 30.72-3.413 54.613 3.413 78.507 23.893 3.413 3.413 6.827 3.413 10.24 6.827 3.413 0 3.413 3.413 6.827 6.827-3.413 0-6.827 0-10.24 0zM525.653 311.467c34.133-34.133 27.307-85.333-13.653-112.64-20.48-13.653-40.96-17.067-61.44-20.48-6.827 0-17.067 0-23.893 0-30.72 0-58.027 3.413-85.333 17.067-13.653 6.827-27.307 17.067-37.547 27.307-30.72 34.133-23.893 85.333 13.653 112.64 20.48 17.067 44.373 23.893 71.68 27.307 20.48 3.413 40.96 3.413 61.44 3.413 3.413 0 6.827 0 10.24-3.413 20.48-13.653 44.373-30.72 64.853-51.2zM389.12 506.027c-13.653 6.827-27.307 20.48-34.133 34.133-20.48 30.72-27.307 64.853-30.72 102.4 0 6.827 3.413 17.067 3.413 23.893 10.24 58.027 75.093 68.267 112.64 44.373 6.827-6.827 17.067-13.653 20.48-20.48 30.72-37.547 44.373-81.92 37.547-126.293-3.413-54.613-61.44-85.333-109.227-58.027zM771.413 495.787c-13.653 0-27.307 0-40.96 0 0 27.307 0 54.613 0 78.507-13.653 0-27.307 0-37.547 0 0-27.307 0-51.2 0-78.507-27.307 0-54.613 0-78.507 0 0-13.653 0-23.893 0-37.547 27.307 0 51.2 0 78.507 0 0-27.307 0-54.613 0-78.507 13.653 0 27.307 0 37.547 0 0 27.307 0 51.2 0 78.507 27.307 0 54.613 0 78.507 0 0 13.653 0 27.307 0 37.547-10.24 0-23.893 0-37.547 0z" />
<glyph unicode="&#xe934;" glyph-name="icon-quickaccess-social-twitter" d="M204.8 253.44c20.48 0 40.96 0 61.44 0 44.373 6.827 85.333 23.893 122.88 51.2-20.48 3.413-40.96 6.827-58.027 17.067-27.307 13.653-47.787 37.547-58.027 68.267-3.413 3.413 0 6.827 3.413 6.827 13.653-3.413 30.72-3.413 47.787 3.413-61.44 20.48-95.573 61.44-98.987 126.293 17.067-10.24 34.133-13.653 54.613-17.067-10.24 10.24-20.48 17.067-27.307 27.307-30.72 40.96-34.133 85.333-13.653 133.12 3.413 10.24 3.413 10.24 10.24 0 58.027-64.853 126.293-105.813 211.627-119.467 10.24-3.413 23.893-3.413 34.133-3.413 6.827 0 10.24 0 6.827 6.827-3.413 27.307 0 54.613 13.653 81.92 40.96 68.267 139.947 85.333 201.387 27.307 3.413-3.413 6.827-3.413 13.653-3.413 23.893 6.827 47.787 17.067 71.68 30.72-10.24-27.307-27.307-51.2-47.787-68.267 23.893 0 44.373 10.24 64.853 17.067-10.24-13.653-20.48-27.307-30.72-37.547-6.827-6.827-17.067-17.067-23.893-20.48s-6.827-10.24-6.827-17.067c0-85.333-27.307-163.84-78.507-232.107-54.613-68.267-122.88-109.227-208.213-126.293-81.92-17.067-160.427-6.827-235.52 34.133-13.653 3.413-23.893 6.827-30.72 13.653v0z" />
<glyph unicode="&#xe935;" glyph-name="icon-quickaccess-support" d="M802.133 509.44c-3.413 10.24-10.24 20.48-20.48 23.893l-23.893 3.413c-6.827 167.253-64.853 218.453-245.76 218.453-184.32 0-242.347-51.2-249.173-225.28l-20.48-3.413c-10.24-3.413-20.48-10.24-20.48-23.893-3.413-13.653-3.413-37.547-3.413-71.68 0-37.547 3.413-64.853 6.827-81.92 0-10.24 10.24-20.48 20.48-23.893l85.333-17.067c13.653-3.413 27.307 6.827 30.72 23.893 3.413 23.893 6.827 58.027 6.827 95.573s-3.413 68.267-6.827 88.747c-3.413 17.067-17.067 27.307-30.72 23.893l-13.653-3.413c3.413 133.12 44.373 163.84 194.56 163.84s187.733-27.307 194.56-157.013l-10.24 6.827c-13.653 3.413-27.307-6.827-30.72-23.893-3.413-20.48-6.827-51.2-6.827-88.747s3.413-75.093 6.827-95.573c3.413-17.067 17.067-27.307 30.72-23.893l13.653 3.413c-3.413-13.653-10.24-30.72-17.067-40.96-23.893-34.133-47.787-51.2-58.027-58.027h-54.613c-10.24 17.067-34.133 30.72-61.44 30.72-37.547 0-68.267-23.893-68.267-54.613s30.72-54.613 68.267-54.613c23.893 0 44.373 10.24 58.027 27.307h68.267l6.827 3.413c3.413 0 44.373 20.48 81.92 78.507 17.067 27.307 27.307 58.027 30.72 81.92l13.653 3.413c10.24 3.413 20.48 10.24 20.48 23.893 3.413 17.067 6.827 44.373 6.827 81.92 0 27.307-3.413 51.2-3.413 64.853z" />
<glyph unicode="&#xe936;" glyph-name="icon-quickaccess-testdrive" d="M512 751.787c-170.667 0-307.2-136.533-307.2-303.787s136.533-303.787 307.2-303.787c170.667 0 307.2 136.533 307.2 303.787s-136.533 303.787-307.2 303.787zM283.307 389.973c-3.413 10.24 3.413 20.48 17.067 20.48 40.96 3.413 102.4 0 129.707-34.133 30.72-37.547 37.547-98.987 37.547-136.533 0-10.24-10.24-20.48-20.48-17.067-81.92 23.893-143.36 85.333-163.84 167.253zM587.093 376.32c30.72 34.133 95.573 37.547 136.533 34.133 10.24 0 17.067-10.24 17.067-20.48-20.48-81.92-85.333-146.773-167.253-167.253-10.24-3.413-20.48 6.827-20.48 17.067 0 34.133 3.413 98.987 34.133 136.533zM512 683.52c98.987 0 180.907-58.027 218.453-143.36 3.413-10.24-3.413-23.893-17.067-20.48-51.2 6.827-122.88 13.653-208.213 13.653-81.92 0-150.187-6.827-194.56-13.653-13.653 0-20.48 10.24-17.067 20.48 37.547 85.333 119.467 143.36 218.453 143.36z" />
<glyph unicode="&#xe937;" glyph-name="icon-quickaccess-trash" d="M634.88 652.8v58.027c0 23.893-20.48 44.373-44.373 44.373h-157.013c-23.893 0-44.373-20.48-44.373-44.373v-58.027h-139.947v-61.44h54.613l20.48-433.493c0-10.24 10.24-17.067 17.067-17.067h341.333c10.24 0 17.067 6.827 17.067 17.067l20.48 433.493h54.613v61.44h-139.947zM436.907 202.24h-40.96v358.4h40.96v-358.4zM535.893 202.24h-40.96v358.4h40.96v-358.4zM573.44 652.8h-126.293v40.96h126.293v-40.96zM634.88 202.24h-40.96v358.4h40.96v-358.4z" />
<glyph unicode="&#xe938;" glyph-name="icon-quickaccess-upload" d="M795.307 386.56h-61.44c-6.827 0-13.653-6.827-13.653-13.653v-6.827c0-44.373-3.413-105.813-20.48-122.88s-71.68-17.067-146.773-17.067c-23.893 0-51.2 0-75.093 0-75.093 0-129.707 0-146.773 17.067-20.48 20.48-20.48 81.92-20.48 122.88v6.827c0 6.827-6.827 13.653-13.653 13.653h-68.267c-6.827 0-13.653-6.827-13.653-13.653v-6.827c0-81.92 6.827-146.773 47.787-184.32 44.373-40.96 112.64-40.96 211.627-40.96 23.893 0 51.2 0 75.093 0 10.24 0 20.48 0 30.72 0 85.333 0 139.947 3.413 180.907 40.96s47.787 102.4 47.787 184.32v6.827c0 10.24-6.827 13.653-13.653 13.653zM368.64 567.467h81.92l10.24-187.733c0-6.827 6.827-13.653 17.067-13.653h75.093c6.827 0 13.653 6.827 17.067 13.653l10.24 187.733h81.92c10.24 0 13.653 10.24 6.827 17.067l-143.36 167.253c-3.413 6.827-13.653 6.827-20.48 0l-146.773-167.253c-3.413-6.827 0-17.067 10.24-17.067z" />
<glyph unicode="&#xe939;" glyph-name="icon-quickaccess-video" d="M802.133 649.387h-580.267c-10.24 0-17.067-6.827-17.067-17.067v-372.053c0-10.24 6.827-17.067 17.067-17.067h583.68c10.24 0 17.067 6.827 17.067 17.067v372.053c-3.413 10.24-10.24 17.067-20.48 17.067zM450.56 331.947v232.107l170.667-116.053-170.667-116.053z" />
<glyph unicode="&#xe93a;" glyph-name="icon-quickaccess-view" d="M512 649.387c-201.387 0-307.2-197.973-307.2-197.973s105.813-208.213 307.2-208.213c201.387 0 307.2 208.213 307.2 208.213s-105.813 197.973-307.2 197.973zM512 294.4c-85.333 0-153.6 68.267-153.6 153.6s68.267 153.6 153.6 153.6c85.333 0 153.6-68.267 153.6-153.6s-68.267-153.6-153.6-153.6zM512 448c0 0 27.307 34.133 47.787 58.027 3.413 3.413 3.413 10.24-3.413 13.653-10.24 6.827-23.893 13.653-40.96 13.653-37.547 3.413-71.68-20.48-85.333-54.613-20.48-51.2 13.653-109.227 68.267-116.053 30.72-3.413 61.44 10.24 78.507 34.133 10.24 13.653 17.067 27.307 17.067 40.96 0 6.827-3.413 10.24-10.24 10.24h-71.68z" />
<glyph unicode="&#xe93b;" glyph-name="icon-quickaccess-website" d="M774.827 700.587h-525.653c-23.893 0-44.373-20.48-44.373-44.373v-327.68c0-23.893 20.48-44.373 44.373-44.373h170.667v-37.547c0-13.653-10.24-20.48-23.893-20.48h-30.72v-27.307h286.72v27.307h-30.72c-13.653 0-23.893 10.24-23.893 20.48v37.547h170.667c23.893 0 44.373 20.48 44.373 44.373v327.68c6.827 23.893-13.653 44.373-37.547 44.373zM764.587 645.973v-266.24h-505.173v266.24h505.173z" />
<glyph unicode="&#xe93c;" glyph-name="icon-quickaccess-write" d="M727.040 639.147l-23.893 23.893c-10.24 13.653-27.307 17.067-44.373 20.48-3.413 0-3.413 0-6.827 0l-389.12-392.533-58.027-122.88c-6.827-13.653 6.827-27.307 20.48-23.893l126.293 51.2 392.533 389.12c3.413 20.48 0 40.96-17.067 54.613zM802.133 717.653l-13.653 17.067c-20.48 20.48-54.613 20.48-78.507 0l-20.48-20.48c17.067-3.413 30.72-13.653 44.373-27.307l23.893-23.893c13.653-13.653 20.48-30.72 23.893-44.373l20.48 20.48c20.48 23.893 23.893 58.027 0 78.507z" />
<glyph unicode="&#xe93d;" glyph-name="icon-quickaccess-zoom-in" d="M754.347 690.347c-40.96 40.96-95.573 64.853-153.6 64.853s-112.64-23.893-153.6-64.853c-71.68-71.68-81.92-177.493-34.133-259.413l-191.147-191.147c-20.48-20.48-20.48-51.2 0-71.68l13.653-13.653c20.48-20.48 51.2-20.48 71.68 0l191.147 191.147c30.72-17.067 68.267-27.307 105.813-27.307 58.027 0 112.64 23.893 153.6 64.853s64.853 95.573 61.44 153.6c0 58.027-23.893 112.64-64.853 153.6zM703.147 434.347c-27.307-27.307-61.44-40.96-98.987-40.96s-75.093 13.653-102.4 40.96c-54.613 54.613-58.027 146.773 0 201.387 27.307 27.307 61.44 40.96 98.987 40.96s75.093-13.653 102.4-40.96c27.307-27.307 40.96-61.44 40.96-102.4 0-34.133-13.653-71.68-40.96-98.987zM624.64 618.667h-37.547v-58.027h-54.613v-37.547h54.613v-58.027h37.547v58.027h58.027v37.547h-58.027z" />
<glyph unicode="&#xe93e;" glyph-name="icon-quickaccess-zoom-out" d="M754.347 690.347c-40.96 40.96-95.573 64.853-153.6 64.853s-112.64-23.893-153.6-64.853c-40.96-40.96-64.853-95.573-64.853-153.6 0-37.547 10.24-75.093 27.307-105.813l-191.147-191.147c-20.48-20.48-20.48-51.2 0-71.68l13.653-13.653c20.48-20.48 51.2-20.48 71.68 0l191.147 191.147c30.72-17.067 68.267-27.307 105.813-27.307 58.027 0 112.64 23.893 153.6 64.853s64.853 95.573 64.853 153.6c0 58.027-23.893 112.64-64.853 153.6zM703.147 434.347c-27.307-27.307-61.44-40.96-98.987-40.96s-75.093 13.653-102.4 40.96c-27.307 27.307-40.96 61.44-40.96 102.4 0 37.547 13.653 75.093 40.96 98.987 27.307 27.307 61.44 40.96 98.987 40.96s75.093-13.653 102.4-40.96c27.307-27.307 40.96-61.44 40.96-102.4 0-34.133-13.653-71.68-40.96-98.987zM525.653 560.64h153.6v-37.547h-153.6v37.547z" />
<glyph unicode="&#xe93f;" glyph-name="icon-quickaccess-360" d="M440.32 352.427c-13.653 0-27.307 3.413-37.547 6.827l-6.827-20.48c10.24-6.827 23.893-10.24 44.373-10.24 34.133 0 54.613 17.067 54.613 40.96 0 17.067-10.24 30.72-23.893 34.133v0c10.24 3.413 20.48 13.653 20.48 30.72 0 23.893-17.067 37.547-51.2 37.547-13.653 0-30.72-3.413-40.96-10.24l6.827-20.48c10.24 3.413 23.893 6.827 34.133 6.827 13.653 0 20.48-6.827 20.48-17.067s-6.827-17.067-20.48-17.067h-23.893v-23.893h23.893c17.067 0 23.893-6.827 23.893-17.067 0-17.067-10.24-20.48-23.893-20.48zM590.507 465.067h-30.72l-37.547-58.027c-6.827-10.24-10.24-20.48-10.24-34.133 0-27.307 17.067-47.787 51.2-47.787s51.2 20.48 51.2 47.787c0 27.307-17.067 44.373-40.96 44.373-6.827 0-13.653 0-13.653-3.413v0l30.72 51.2zM566.613 396.8c13.653 0 23.893-6.827 23.893-20.48s-10.24-23.893-23.893-23.893c-13.653 0-23.893 6.827-23.893 23.893 0 13.653 6.827 20.48 23.893 20.48zM682.667 468.48c-37.547 0-51.2-27.307-51.2-71.68s13.653-71.68 51.2-71.68c37.547 0 51.2 27.307 51.2 71.68s-17.067 71.68-51.2 71.68zM682.667 352.427c-17.067 0-23.893 13.653-23.893 47.787 0 30.72 6.827 47.787 23.893 47.787s23.893-13.653 23.893-47.787c-3.413-34.133-6.827-47.787-23.893-47.787zM771.413 465.067c-13.653 0-27.307-10.24-27.307-27.307 0-13.653 10.24-27.307 27.307-27.307 13.653 0 27.307 10.24 27.307 27.307s-10.24 27.307-27.307 27.307zM771.413 424.107c-10.24 0-17.067 6.827-17.067 17.067s6.827 17.067 17.067 17.067c10.24 0 17.067-10.24 17.067-17.067 0-10.24-6.827-17.067-17.067-17.067zM488.107 212.48c-105.813 0-191.147 85.333-191.147 191.147s85.333 191.147 191.147 191.147h30.72v-78.507c0-6.827 10.24-10.24 13.653-6.827l133.12 116.053c3.413 3.413 3.413 10.24 0 13.653l-133.12 116.053c-6.827 3.413-13.653 0-13.653-6.827v-78.507h-30.72c-146.773 0-262.827-119.467-262.827-262.827 0-146.773 119.467-262.827 262.827-262.827 64.853 0 126.293 23.893 174.080 64.853l-47.787 54.613c-34.133-34.133-78.507-51.2-126.293-51.2z" />
<glyph unicode="&#xe940;" glyph-name="icon-quickaccess-brochure" d="M791.893 751.787c-10.24 6.827-23.893 6.827-34.133 0 0 0-68.267-40.96-126.293-64.853-47.787-17.067-102.4-30.72-119.467-34.133-17.067 3.413-71.68 17.067-119.467 34.133-58.027 20.48-126.293 61.44-126.293 64.853-10.24 3.413-23.893 3.413-34.133 0-10.24-6.827-17.067-17.067-17.067-30.72v-443.733c0-10.24 6.827-23.893 17.067-27.307 3.413-3.413 71.68-44.373 136.533-71.68s133.12-37.547 136.533-37.547v0c3.413 0 3.413 0 6.827 0s3.413 0 6.827 0 71.68 13.653 136.533 37.547c64.853 27.307 133.12 68.267 136.533 71.68 10.24 6.827 17.067 17.067 17.067 27.307v443.733c0 13.653-6.827 23.893-17.067 30.72zM283.307 297.813v365.227c23.893-13.653 54.613-27.307 85.333-40.96 40.96-17.067 81.92-27.307 109.227-34.133v-372.053c-23.893 6.827-54.613 13.653-85.333 27.307-40.96 17.067-85.333 40.96-109.227 54.613zM740.693 297.813c-23.893-13.653-68.267-37.547-109.227-54.613-30.72-10.24-61.44-20.48-85.333-27.307v372.053c27.307 6.827 71.68 17.067 109.227 34.133 30.72 10.24 61.44 27.307 85.333 40.96v-365.227z" />
<glyph unicode="&#xe941;" glyph-name="icon-quickaccess-business-customers" d="M563.2 488.96c-13.653 27.307-40.96 68.267-44.373 71.68-6.827 6.827-98.987 6.827-119.467 6.827-23.893 0-105.813 0-112.64-6.827-3.413-3.413-27.307-44.373-37.547-71.68-10.24 0-27.307 0-30.72-3.413-6.827-6.827-13.653-13.653-10.24-20.48 3.413-3.413 10.24-3.413 10.24-3.413h17.067c0-3.413-3.413-6.827-3.413-10.24-20.48-58.027-20.48-71.68-20.48-71.68v-78.507c0 0 0-13.653 13.653-20.48v-37.547c0-3.413 3.413-6.827 6.827-6.827h37.547c3.413 0 6.827 3.413 6.827 6.827v30.72c54.613-3.413 201.387-3.413 256 0v-30.72c0-3.413 3.413-6.827 6.827-6.827h37.547c3.413 0 6.827 3.413 6.827 6.827v37.547c13.653 6.827 13.653 20.48 13.653 20.48v78.507c0 0 0 10.24-20.48 71.68 0 3.413-3.413 6.827-3.413 10.24h20.48c0 0 6.827 0 10.24 3.413 3.413 6.827-3.413 13.653-10.24 20.48-3.413 3.413-20.48 3.413-30.72 3.413zM303.787 536.747c13.653 0 40.96 3.413 85.333 3.413 3.413 0 6.827 0 10.24 0s6.827 0 10.24 0c47.787 0 78.507 0 92.16-3.413 10.24-17.067 30.72-51.2 40.96-68.267h-273.067c6.827 13.653 23.893 51.2 34.133 68.267zM262.827 366.080v0c-13.653 0-23.893 13.653-23.893 27.307s13.653 27.307 27.307 27.307c3.413 0 10.24-3.413 10.24-3.413l30.72-17.067 6.827-34.133h-51.2zM464.213 366.080c-13.653-3.413-102.4-3.413-116.053 0-17.067 3.413-20.48 34.133-20.48 34.133h160.427c-3.413 0-6.827-30.72-23.893-34.133zM546.133 366.080v0h-51.2l6.827 34.133 30.72 17.067c0 0 6.827 3.413 10.24 3.413 13.653 0 27.307-13.653 27.307-27.307 3.413-13.653-10.24-27.307-23.893-27.307zM819.2 557.227c3.413 6.827-3.413 13.653-10.24 20.48-3.413 3.413-20.48 3.413-34.133 3.413-13.653 27.307-40.96 68.267-44.373 71.68-6.827 6.827-98.987 6.827-119.467 6.827-23.893 0-105.813 0-112.64-6.827-3.413-3.413-17.067-27.307-27.307-51.2 13.653 0 23.893 0 34.133 0 3.413 10.24 10.24 17.067 13.653 23.893 13.653 0 40.96 3.413 85.333 3.413 3.413 0 6.827 0 10.24 0s6.827 0 10.24 0c47.787 0 78.507 0 92.16-3.413 10.24-17.067 30.72-51.2 40.96-68.267h-187.733c6.827-10.24 13.653-23.893 20.48-34.133 17.067-3.413 27.307-6.827 37.547-13.653 6.827-6.827 10.24-13.653 13.653-20.48h61.44c0 0-3.413-30.72-20.48-34.133-6.827 0-20.48-3.413-34.133-3.413-3.413-6.827-6.827-10.24-6.827-13.653-3.413-3.413-6.827-6.827-10.24-6.827 6.827-20.48 10.24-40.96 13.653-51.2v0 0-17.067c44.373 0 85.333 0 109.227 0v-30.72c0-3.413 3.413-6.827 6.827-6.827h37.547c3.413 0 6.827 3.413 6.827 6.827v37.547c13.653 6.827 13.653 20.48 13.653 20.48v78.507c0 0 0 10.24-20.48 71.68 0 3.413-3.413 6.827-3.413 10.24h20.48c-6.827 3.413 0 3.413 3.413 6.827zM761.173 458.24v0h-51.2l6.827 34.133 30.72 17.067c0 0 6.827 3.413 10.24 3.413 13.653 0 27.307-13.653 27.307-27.307 0-17.067-10.24-27.307-23.893-27.307z" />
<glyph unicode="&#xe942;" glyph-name="icon-quickaccess-calculator" d="M692.907 755.2h-361.813c-17.067 0-30.72-13.653-30.72-30.72v-549.547c0-17.067 13.653-30.72 30.72-30.72h358.4c17.067 0 30.72 13.653 30.72 30.72v549.547c3.413 17.067-10.24 30.72-27.307 30.72zM365.227 690.347h296.96v-139.947h-296.96v139.947zM443.733 192h-81.92v78.507h81.92v-78.507zM443.733 297.813h-81.92v78.507h81.92v-78.507zM443.733 403.627h-81.92v78.507h81.92v-78.507zM552.96 192h-81.92v78.507h81.92v-78.507zM552.96 297.813h-81.92v78.507h81.92v-78.507zM552.96 403.627h-81.92v78.507h81.92v-78.507zM662.187 192h-81.92v78.507h81.92v-78.507zM662.187 297.813h-81.92v78.507h81.92v-78.507zM662.187 403.627h-81.92v78.507h81.92v-78.507z" />
<glyph unicode="&#xe943;" glyph-name="icon-quickaccess-calendar" d="M344.747 611.84v0c-13.653 0-27.307 10.24-27.307 27.307v78.507c0 13.653 10.24 27.307 27.307 27.307v0c13.653 0 27.307-10.24 27.307-27.307v-78.507c-3.413-17.067-13.653-27.307-27.307-27.307zM512 611.84v0c-13.653 0-27.307 10.24-27.307 27.307v78.507c0 13.653 10.24 27.307 27.307 27.307v0c13.653 0 27.307-10.24 27.307-27.307v-78.507c0-17.067-13.653-27.307-27.307-27.307zM679.253 611.84v0c-13.653 0-27.307 10.24-27.307 27.307v78.507c0 13.653 10.24 27.307 27.307 27.307v0c13.653 0 27.307-10.24 27.307-27.307v-78.507c0-17.067-10.24-27.307-27.307-27.307zM744.107 645.973v-6.827c0-34.133-23.893-64.853-58.027-68.267-37.547-3.413-71.68 27.307-71.68 64.853v10.24h-40.96v-6.827c0-34.133-23.893-64.853-58.027-68.267-37.547-3.413-71.68 27.307-71.68 64.853v10.24h-34.133v-6.827c0-34.133-23.893-64.853-58.027-68.267-37.547-3.413-71.68 27.307-71.68 64.853v10.24h-61.44c-6.827 0-13.653-6.827-13.653-13.653v-467.627c0-6.827 6.827-13.653 13.653-13.653h590.507c6.827 0 13.653 6.827 13.653 13.653v467.627c0 6.827-6.827 13.653-13.653 13.653h-64.853zM402.773 219.307h-112.64v116.053h112.64v-116.053zM402.773 383.147h-112.64v116.053h112.64v-116.053zM566.613 219.307h-112.64v116.053h112.64v-116.053zM566.613 383.147h-112.64v116.053h112.64v-116.053zM733.867 301.227l-78.507-81.92h-34.133v116.053h112.64v-34.133zM733.867 383.147h-112.64v116.053h112.64v-116.053z" />
<glyph unicode="&#xe944;" glyph-name="icon-quickaccess-car" d="M808.96 444.587v37.547c0 0-6.827 17.067-27.307 40.96-13.653 13.653-20.48 20.48-20.48 20.48l6.827 3.413v3.413c0 0-81.92 17.067-204.8 13.653s-187.733-64.853-187.733-64.853-95.573-6.827-136.533-30.72c-17.067-10.24-23.893-40.96-23.893-40.96l-10.24-10.24v-40.96c0 0 17.067-13.653 61.44-13.653 0 0 3.413 0 3.413 0 6.827-17.067 23.893-30.72 44.373-30.72s37.547 13.653 44.373 30.72c92.16 0 228.693 0 317.44 0 6.827-17.067 23.893-30.72 44.373-30.72s37.547 13.653 44.373 30.72c6.827 0 6.827 0 6.827 0s44.373 3.413 44.373 30.72c0 23.893 0 34.133 0 34.133l-6.827 17.067z" />
<glyph unicode="&#xe945;" glyph-name="icon-quickaccess-checkmark" d="M433.493 195.413l-221.867 177.493c-6.827 6.827-6.827 13.653-3.413 17.067l34.133 37.547c3.413 3.413 10.24 6.827 17.067 3.413l170.667-105.813 331.093 372.053c3.413 3.413 10.24 6.827 17.067 0l40.96-30.72c0-3.413 0-10.24-3.413-17.067l-365.227-450.56c-6.827-6.827-13.653-6.827-17.067-3.413z" />
<glyph unicode="&#xe946;" glyph-name="icon-quickaccess-close" d="M607.573 448l208.213 218.453c3.413 3.413 3.413 13.653 0 20.48l-64.853 61.44c-6.827 6.827-13.653 6.827-20.48 0l-218.453-208.213-218.453 208.213c-6.827 6.827-17.067 6.827-20.48 0l-64.853-61.44c-3.413-6.827-3.413-17.067 0-20.48l208.213-218.453-208.213-218.453c-3.413-3.413-3.413-13.653 0-20.48l64.853-61.44c6.827-6.827 13.653-6.827 20.48 0l218.453 208.213 218.453-208.213c6.827-6.827 13.653-6.827 20.48 0l61.44 61.44c6.827 6.827 6.827 13.653 0 20.48l-204.8 218.453z" />
<glyph unicode="&#xe947;" glyph-name="icon-quickaccess-compare" d="M733.867 615.253l-157.013 136.533c-6.827 6.827-17.067 0-17.067-6.827v-78.507l-218.453-10.24c-6.827 0-13.653-6.827-13.653-13.653v-68.267c0-6.827 6.827-13.653 13.653-13.653l218.453-10.24v-78.507c0-10.24 10.24-13.653 17.067-6.827l157.013 136.533c6.827 3.413 6.827 10.24 0 13.653zM682.667 338.773l-218.453 10.24v78.507c0 10.24-10.24 13.653-17.067 6.827l-157.013-136.533c-6.827-3.413-6.827-13.653 0-17.067l157.013-136.533c6.827-6.827 17.067 0 17.067 6.827v78.507l218.453 10.24c6.827 0 13.653 6.827 13.653 13.653v68.267c0 10.24-6.827 17.067-13.653 17.067z" />
<glyph unicode="&#xe948;" glyph-name="icon-quickaccess-configurator" d="M805.547 506.027c10.24 6.827 13.653 17.067 6.827 30.72-6.827 17.067-13.653 30.72-20.48 47.787-6.827 23.893-20.48 34.133-44.373 30.72-3.413 0-10.24 0-13.653 0-44.373 0-58.027 13.653-58.027 58.027 0 47.787 0 47.787-40.96 64.853 0 0-3.413 0-3.413 0-51.2 23.893-37.547 27.307-78.507-17.067-27.307-27.307-54.613-27.307-78.507 3.413-27.307 34.133-27.307 34.133-71.68 17.067-3.413 0-3.413 0-6.827-3.413-58.027-23.893-51.2-13.653-47.787-68.267 0-37.547-13.653-51.2-51.2-51.2-61.44 0-47.787 10.24-71.68-47.787-23.893-54.613-27.307-44.373 17.067-81.92 27.307-23.893 27.307-51.2 0-75.093-44.373-37.547-37.547-30.72-20.48-78.507 0 0 0 0 0-3.413 20.48-47.787 10.24-54.613 71.68-47.787 30.72 10.24 47.787-10.24 47.787-40.96 0-20.48 0-37.547 0-58.027 3.413-10.24 10.24-13.653 20.48-17.067 3.413 0 10.24-3.413 13.653-6.827 6.827-3.413 17.067-6.827 23.893-10.24 37.547-13.653 37.547-13.653 64.853 13.653 3.413 6.827 10.24 10.24 13.653 17.067 20.48 20.48 44.373 13.653 68.267-17.067 3.413-3.413 6.827-6.827 10.24-10.24 13.653-17.067 30.72-20.48 47.787-10.24 13.653 6.827 30.72 13.653 44.373 17.067 3.413 0 6.827 3.413 10.24 6.827 6.827 3.413 13.653 10.24 13.653 17.067 0 13.653 0 27.307-3.413 44.373-3.413 30.72 17.067 51.2 47.787 51.2 6.827 0 17.067 0 23.893 0 34.133 0 34.133 0 47.787 30.72 0 3.413 3.413 6.827 3.413 6.827 23.893 51.2 23.893 51.2-17.067 92.16-20.48 23.893-20.48 44.373 0 68.267 13.653 10.24 23.893 20.48 30.72 27.307zM508.587 287.573c-92.16 0-163.84 71.68-163.84 163.84 0 88.747 78.507 167.253 167.253 163.84 92.16-3.413 163.84-75.093 163.84-163.84 0-92.16-75.093-167.253-167.253-163.84z" />
<glyph unicode="&#xe949;" glyph-name="icon-quickaccess-configure" d="M805.547 506.027c10.24 6.827 13.653 17.067 6.827 30.72-6.827 17.067-13.653 30.72-20.48 47.787-6.827 23.893-20.48 34.133-44.373 30.72-3.413 0-10.24 0-13.653 0-44.373 0-58.027 13.653-58.027 58.027 0 47.787 0 47.787-40.96 64.853 0 0-3.413 0-3.413 0-51.2 23.893-37.547 27.307-78.507-17.067-27.307-27.307-54.613-27.307-78.507 3.413-27.307 34.133-27.307 34.133-71.68 17.067-3.413 0-3.413 0-6.827-3.413-58.027-23.893-51.2-13.653-47.787-68.267 0-37.547-13.653-51.2-51.2-51.2-61.44 0-47.787 10.24-71.68-47.787-23.893-54.613-27.307-44.373 17.067-81.92 27.307-23.893 27.307-51.2 0-75.093-44.373-37.547-37.547-30.72-20.48-78.507 0 0 0 0 0-3.413 20.48-47.787 10.24-54.613 71.68-47.787 30.72 10.24 47.787-10.24 47.787-40.96 0-20.48 0-37.547 0-58.027 3.413-10.24 10.24-13.653 20.48-17.067 3.413 0 10.24-3.413 13.653-6.827 6.827-3.413 17.067-6.827 23.893-10.24 37.547-13.653 37.547-13.653 64.853 13.653 3.413 6.827 10.24 10.24 13.653 17.067 20.48 20.48 44.373 13.653 68.267-17.067 3.413-3.413 6.827-6.827 10.24-10.24 13.653-17.067 30.72-20.48 47.787-10.24 13.653 6.827 30.72 13.653 44.373 17.067 3.413 0 6.827 3.413 10.24 6.827 6.827 3.413 13.653 10.24 13.653 17.067 0 13.653 0 27.307-3.413 44.373-3.413 30.72 17.067 51.2 47.787 51.2 6.827 0 17.067 0 23.893 0 34.133 0 34.133 0 47.787 30.72 0 3.413 3.413 6.827 3.413 6.827 23.893 51.2 23.893 51.2-17.067 92.16-20.48 23.893-20.48 44.373 0 68.267 13.653 10.24 23.893 20.48 30.72 27.307zM508.587 287.573c-92.16 0-163.84 71.68-163.84 163.84 0 88.747 78.507 167.253 167.253 163.84 92.16-3.413 163.84-75.093 163.84-163.84 0-92.16-75.093-167.253-167.253-163.84z" />
<glyph unicode="&#xe94a;" glyph-name="icon-quickaccess-convince" d="M365.227 465.067c-3.413 3.413-10.24 6.827-17.067 6.827h-122.88c-10.24 0-20.48-6.827-20.48-20.48v-276.48c0-10.24 6.827-20.48 20.48-20.48h122.88c6.827 0 13.653 3.413 17.067 6.827v303.787zM802.133 492.373c-3.413 6.827-6.827 10.24-13.653 10.24h-194.56c0 0 23.893 54.613 23.893 105.813s-37.547 109.227-37.547 109.227-17.067 20.48-44.373 20.48-37.547-23.893-37.547-23.893v-109.227c0 0-88.747-150.187-88.747-146.773 0 0 0 0-3.413 0v-286.72l23.893-10.24h303.787c0 0 30.72-6.827 68.267 139.947 30.72 109.227 10.24 170.667 0 191.147z" />
<glyph unicode="&#xe94b;" glyph-name="icon-quickaccess-corporate-topics" d="M819.2 587.947v6.827c0 10.24-6.827 17.067-17.067 17.067h-157.013v54.613c0 27.307-20.48 47.787-44.373 47.787h-177.493c-23.893 0-44.373-20.48-44.373-47.787v-54.613h-157.013c-10.24 0-17.067-6.827-17.067-17.067v-6.827l102.4-153.6h409.6l102.4 153.6zM583.68 611.84h-146.773v40.96h146.773v-40.96zM740.693 393.387h-143.36v-23.893c0-34.133-27.307-58.027-58.027-58.027h-47.787c-34.133 0-58.027 27.307-58.027 58.027v23.893h-150.187l-78.507 119.467v-314.027c0-10.24 6.827-17.067 17.067-17.067h580.267c10.24 0 17.067 6.827 17.067 17.067v314.027l-78.507-119.467zM488.107 352.427h47.787c10.24 0 17.067 6.827 17.067 17.067v23.893h-81.92v-23.893c0-6.827 6.827-17.067 17.067-17.067z" />
<glyph unicode="&#xe94c;" glyph-name="icon-quickaccess-dealer" d="M515.413 540.16c61.44 0 98.987 37.547 98.987 98.987s-27.307 112.64-98.987 112.64c-75.093 0-98.987-51.2-98.987-112.64 0-58.027 37.547-98.987 98.987-98.987zM727.040 273.92c0 160.427-34.133 221.867-143.36 235.52-17.067-13.653-40.96-20.48-68.267-20.48s-51.2 6.827-68.267 20.48c-116.053-13.653-150.187-71.68-150.187-235.52 0-6.827 0-10.24 0-17.067v-78.507c0-10.24 6.827-17.067 13.653-17.067 0 0 47.787-20.48 204.8-20.48s201.387 20.48 201.387 20.48c6.827 0 13.653 6.827 13.653 17.067v68.267c0 10.24 0 13.653 0 13.653-3.413 3.413-3.413 10.24-3.413 13.653zM518.827 236.373c-3.413-3.413-10.24-3.413-13.653 0l-34.133 37.547 30.72 180.907h20.48l30.72-180.907-34.133-37.547z" />
<glyph unicode="&#xe94d;" glyph-name="icon-quickaccess-download" d="M795.307 386.56h-61.44c-6.827 0-13.653-6.827-13.653-13.653v-6.827c0-44.373-3.413-105.813-20.48-122.88s-71.68-17.067-146.773-17.067c-23.893 0-51.2 0-75.093 0-75.093 0-129.707 0-146.773 17.067-20.48 20.48-20.48 81.92-20.48 122.88v6.827c0 6.827-6.827 13.653-13.653 13.653h-68.267c-6.827 0-13.653-6.827-13.653-13.653v-6.827c0-81.92 6.827-146.773 47.787-184.32 44.373-40.96 112.64-40.96 211.627-40.96 23.893 0 51.2 0 75.093 0 10.24 0 20.48 0 30.72 0 85.333 0 139.947 3.413 180.907 40.96s47.787 102.4 47.787 184.32v6.827c0 10.24-6.827 13.653-13.653 13.653zM501.76 369.493c3.413-6.827 13.653-6.827 20.48 0l143.36 167.253c6.827 6.827 0 17.067-6.827 17.067h-81.92l-10.24 187.733c0 6.827-6.827 13.653-17.067 13.653h-75.093c-6.827 0-13.653-6.827-17.067-13.653l-10.24-187.733h-81.92c-10.24 0-13.653-10.24-6.827-17.067l143.36-167.253z" />
<glyph unicode="&#xe94e;" glyph-name="icon-quickaccess-email" d="M638.293 181.76c3.413-10.24-3.413-20.48-13.653-23.893-30.72-10.24-68.267-17.067-112.64-17.067-184.32 0-300.373 105.813-300.373 300.373 0 163.84 119.467 314.027 320.853 314.027 177.493 0 279.893-122.88 279.893-269.653 0-136.533-78.507-211.627-153.6-211.627-47.787 0-75.093 17.067-88.747 44.373v0c-23.893-17.067-54.613-37.547-95.573-37.547-68.267 0-112.64 51.2-112.64 126.293 0 92.16 54.613 194.56 150.187 194.56 40.96 0 64.853-17.067 81.92-34.133v0l17.067 23.893h34.133c10.24 0 20.48-10.24 17.067-20.48l-30.72-170.667c-6.827-44.373 0-71.68 34.133-71.68 40.96 0 85.333 47.787 85.333 150.187 0 112.64-64.853 211.627-215.040 211.627-167.253 0-252.587-122.88-252.587-259.413 0-143.36 112.64-252.587 259.413-242.347 27.307 3.413 54.613 6.827 75.093 13.653 10.24 3.413 20.48-3.413 23.893-13.653l-3.413-6.827zM573.44 519.68c-13.653 13.653-34.133 17.067-51.2 17.067-51.2 0-85.333-58.027-85.333-122.88 0-37.547 17.067-61.44 51.2-61.44 20.48 0 44.373 10.24 61.44 20.48l23.893 146.773z" />
<glyph unicode="&#xe94f;" glyph-name="icon-quickaccess-exclamation-mark" d="M532.48 352.427h-40.96c-10.24 0-20.48 6.827-20.48 20.48l-23.893 232.107v116.053c0 17.067 13.653 34.133 34.133 34.133h61.44c17.067 0 34.133-13.653 34.133-34.133v-116.053l-23.893-232.107c0-10.24-10.24-20.48-20.48-20.48zM583.68 212.48c0-39.588-32.092-71.68-71.68-71.68s-71.68 32.092-71.68 71.68c0 39.588 32.092 71.68 71.68 71.68s71.68-32.092 71.68-71.68z" />
<glyph unicode="&#xe950;" glyph-name="icon-quickaccess-favourite" d="M529.067 727.893l64.853-194.56h204.8c17.067 0 27.307-23.893 10.24-34.133l-167.253-119.467 64.853-194.56c6.827-17.067-13.653-34.133-30.72-20.48l-163.84 116.053-167.253-119.467c-13.653-10.24-34.133 3.413-30.72 20.48l64.853 194.56-167.253 119.467c-13.653 10.24-6.827 34.133 10.24 34.133h204.8l64.853 194.56c6.827 20.48 34.133 20.48 37.547 3.413z" />
<glyph unicode="&#xe951;" glyph-name="icon-quickaccess-fax" d="M706.56 690.347c0 6.827-3.413 10.24-10.24 10.24h-365.227c-6.827 0-10.24-3.413-10.24-10.24v-170.667h385.707v170.667zM802.133 478.72h-580.267c-10.24 0-17.067-6.827-17.067-17.067v-249.173c0-10.24 6.827-17.067 17.067-17.067h583.68c10.24 0 17.067 6.827 17.067 17.067v249.173c-3.413 10.24-10.24 17.067-20.48 17.067zM689.493 280.747c0-3.413-6.827-6.827-10.24-6.827l-64.853 10.24c-3.413 0-3.413 3.413-3.413 3.413 0 10.24 0 17.067-6.827 23.893-10.24 13.653-44.373 23.893-92.16 23.893s-81.92-6.827-92.16-20.48c-3.413-6.827-6.827-10.24-6.827-23.893 0-3.413 0-3.413-3.413-3.413l-68.267-10.24c-3.413 0-3.413 0-6.827 3.413-3.413 13.653-17.067 54.613 6.827 71.68 34.133 27.307 95.573 30.72 167.253 30.72s133.12-3.413 167.253-30.72c23.893-20.48 17.067-54.613 13.653-71.68z" />
<glyph unicode="&#xe952;" glyph-name="icon-quickaccess-filter" d="M819.2 717.653c0 10.24-10.24 20.48-20.48 20.48h-573.44c-10.24 3.413-20.48-6.827-20.48-20.48v-71.68l242.347-221.867v-215.040c0-30.72 23.893-54.613 54.613-54.613h20.48c30.72 0 54.613 23.893 54.613 54.613v211.627l242.347 225.28v71.68z" />
<glyph unicode="&#xe953;" glyph-name="icon-quickaccess-get-your-volkswagen-1" d="M808.96 297.813v37.547c0 0-6.827 17.067-27.307 40.96-13.653 13.653-20.48 20.48-20.48 20.48l6.827 3.413v3.413c0 0-81.92 17.067-204.8 13.653s-187.733-64.853-187.733-64.853-95.573-6.827-136.533-30.72c-17.067-10.24-23.893-40.96-23.893-40.96l-10.24-10.24v-40.96c0 0 17.067-13.653 61.44-13.653 0 0 3.413 0 3.413 0 6.827-17.067 23.893-30.72 44.373-30.72s37.547 13.653 44.373 30.72c92.16 0 228.693 0 317.44 0 6.827-17.067 23.893-30.72 44.373-30.72s37.547 13.653 44.373 30.72c6.827 0 6.827 0 6.827 0s47.787 3.413 47.787 27.307c0 23.893 0 34.133 0 34.133l-10.24 20.48zM474.453 437.76l47.787 47.787c17.067-10.24 37.547-17.067 61.44-17.067 30.72 0 61.44 13.653 85.333 34.133 23.893 23.893 34.133 54.613 34.133 85.333s-13.653 61.44-37.547 85.333c-23.893 23.893-54.613 37.547-85.333 37.547s-61.44-13.653-85.333-34.133c-23.893-23.893-34.133-54.613-34.133-85.333 0-20.48 6.827-40.96 17.067-61.44l-102.4-98.987c-10.24-10.24-10.24-27.307 0-37.547 20.48 13.653 51.2 34.133 98.987 44.373zM529.067 642.56c13.653 13.653 30.72 20.48 51.2 20.48s37.547-6.827 51.2-20.48c13.653-13.653 20.48-30.72 20.48-51.2s-6.827-37.547-20.48-51.2c-13.653-13.653-30.72-20.48-51.2-20.48s-37.547 6.827-51.2 20.48c-13.653 13.653-20.48 30.72-20.48 51.2s6.827 37.547 20.48 51.2z" />
<glyph unicode="&#xe954;" glyph-name="icon-quickaccess-get-your-volkswagen-2" d="M808.96 301.227v37.547c0 0-6.827 17.067-27.307 40.96-13.653 13.653-20.48 20.48-20.48 20.48l6.827 3.413v3.413c0 0-81.92 17.067-204.8 13.653s-187.733-64.853-187.733-64.853-95.573-6.827-136.533-30.72c-17.067-10.24-23.893-40.96-23.893-40.96l-10.24-10.24v-40.96c0 0 17.067-13.653 61.44-13.653 0 0 3.413 0 3.413 0 6.827-17.067 23.893-30.72 44.373-30.72s37.547 13.653 44.373 30.72c92.16 0 228.693 0 317.44 0 6.827-17.067 23.893-30.72 44.373-30.72s37.547 13.653 44.373 30.72c6.827 0 6.827 0 6.827 0s44.373 3.413 44.373 30.72c0 23.893 0 34.133 0 34.133l-6.827 17.067zM208.213 471.893c6.827-23.893 6.827-27.307 13.653-54.613l58.027-10.24c13.653-10.24 17.067-17.067 27.307-27.307 23.893 3.413 40.96 6.827 54.613 6.827 6.827 3.413 17.067 13.653 30.72 20.48-40.96 13.653-68.267 51.2-68.267 95.573 0 54.613 44.373 98.987 98.987 98.987s98.987-44.373 98.987-98.987c0-20.48-6.827-37.547-17.067-54.613 17.067 3.413 37.547 6.827 58.027 6.827 10.24 0 17.067 0 27.307 0 13.653 0 23.893 0 37.547 0 0 10.24 3.413 17.067 6.827 30.72l-47.787 34.133c-3.413 13.653-6.827 23.893-10.24 37.547l23.893 54.613c-17.067 20.48-20.48 23.893-37.547 40.96l-58.027-17.067c-13.653 6.827-23.893 10.24-34.133 17.067l-27.307 54.613c-27.307 0-30.72 0-54.613 0l-27.307-54.613c-13.653-6.827-20.48-10.24-34.133-17.067l-61.44 10.24c-17.067-20.48-17.067-23.893-34.133-44.373l30.72-51.2c-3.413-13.653-3.413-23.893-6.827-37.547l-47.787-40.96z" />
<glyph unicode="&#xe955;" glyph-name="icon-quickaccess-home" d="M819.2 448l-307.2 307.2-139.947-139.947v71.68h-75.093v-146.773l-92.16-92.16c-6.827-6.827 0-13.653 6.827-13.653h64.853v-273.067c0-10.24 6.827-17.067 17.067-17.067h232.107v180.907h116.053v-184.32h92.16c10.24 0 17.067 6.827 17.067 17.067v273.067h64.853c6.827 0 10.24 10.24 3.413 17.067z" />
<glyph unicode="&#xe956;" glyph-name="icon-quickaccess-image" d="M679.253 430.933l-95.573 129.707-95.573-136.533-68.267 61.44-64.853-95.573v-47.787h324.267zM488.107 587.947c0-20.736-16.81-37.547-37.547-37.547s-37.547 16.81-37.547 37.547c0 20.736 16.81 37.547 37.547 37.547s37.547-16.81 37.547-37.547zM761.173 755.2h-498.347c-20.48 0-34.133-13.653-34.133-34.133v-546.133c0-20.48 13.653-34.133 34.133-34.133h498.347c20.48 0 34.133 13.653 34.133 34.133v546.133c0 20.48-13.653 34.133-34.133 34.133zM727.040 686.933v-406.187h-430.080v406.187h430.080z" />
<glyph unicode="&#xe957;" glyph-name="icon-quickaccess-image-gallery" d="M600.747 383.147l-81.92 109.227-78.507-112.64-58.027 51.2-54.613-81.92v-37.547h273.067zM436.907 516.267c0-16.966-13.754-30.72-30.72-30.72s-30.72 13.754-30.72 30.72c0 16.966 13.754 30.72 30.72 30.72s30.72-13.754 30.72-30.72zM669.013 659.627h-419.84c-17.067 0-27.307-13.653-27.307-27.307v-460.8c0-17.067 13.653-27.307 27.307-27.307h419.84c17.067 0 27.307 13.653 27.307 27.307v457.387c3.413 17.067-10.24 30.72-27.307 30.72zM641.707 601.6v-341.333h-361.813v341.333h361.813zM774.827 755.2h-419.84c-17.067 0-30.72-13.653-30.72-27.307 0-17.067 13.653-27.307 27.307-27.307h392.533v-430.080c0-17.067 13.653-27.307 27.307-27.307 17.067 0 27.307 13.653 27.307 27.307v457.387c3.413 13.653-10.24 27.307-23.893 27.307z" />
<glyph unicode="&#xe958;" glyph-name="icon-quickaccess-importer" d="M512 751.787c-170.667 0-307.2-136.533-307.2-303.787s136.533-303.787 307.2-303.787c170.667 0 307.2 136.533 307.2 303.787s-136.533 303.787-307.2 303.787zM276.48 448c0 88.747 47.787 163.84 119.467 204.8h6.827l-17.067-23.893c0 0 17.067-20.48 13.653-23.893s-10.24-10.24-10.24-10.24l-23.893-37.547 13.653-17.067c0 0 3.413-37.547 3.413-40.96s13.653-20.48 13.653-20.48l-10.24 51.2 20.48-64.853 20.48-20.48 17.067-3.413 27.307-20.48 13.653-20.48 34.133-6.827-6.827-23.893-20.48-37.547 20.48-88.747c0 0-10.24-20.48-17.067-30.72-122.88 10.24-218.453 112.64-218.453 235.52zM522.24 212.48l27.307 17.067c0 0 75.093 47.787 78.507 54.613 6.827 6.827 10.24 34.133 10.24 34.133l-23.893 20.48v20.48l-61.44 51.2-30.72-6.827h-23.893l-3.413 34.133h-17.067l6.827 30.72h-10.24l-6.827-10.24h-17.067c0 0-10.24 13.653-10.24 17.067s6.827 34.133 6.827 34.133h51.2l10.24-23.893h3.413v30.72c0 0 27.307 44.373 30.72 44.373s30.72 10.24 30.72 10.24l27.307 20.48-17.067 30.72c0 0-37.547 13.653-40.96 13.653s-6.827-10.24-6.827-10.24l-6.827-20.48-10.24 13.653-34.133 13.653 10.24 10.24 20.48 3.413 47.787-13.653v17.067c0 0-3.413 6.827-10.24 17.067 6.827 0 17.067-3.413 20.48-3.413s13.653-27.307 17.067-27.307c3.413 0 23.893-17.067 23.893-17.067l3.413 20.48 6.827 10.24-3.413 3.413c23.893-10.24 40.96-27.307 58.027-44.373v0-17.067l13.653-10.24 3.413 3.413c6.827-10.24 13.653-20.48 20.48-30.72l-3.413-3.413 3.413-30.72 20.48-6.827c0 0 0 6.827 0 10.24 3.413-6.827 3.413-10.24 3.413-17.067h-10.24v-37.547l-6.827-20.48v-20.48l-6.827-20.48 3.413-37.547 13.653 3.413c-27.307-88.747-112.64-157.013-211.627-160.427zM498.347 475.307l6.827-6.827 20.48-23.893v17.067l-13.653 13.653zM542.72 458.24c0 0-13.653-10.24-10.24-10.24s17.067 0 17.067 0l13.653-3.413-6.827 13.653h-13.653z" />
<glyph unicode="&#xe959;" glyph-name="icon-quickaccess-info" d="M570.027 232.96v296.96c0 6.827-6.827 13.653-13.653 13.653h-143.36c-6.827 0-13.653-6.827-13.653-13.653l10.24-81.92h44.373v-215.040h-44.373c-6.827 0-13.653-6.827-13.653-13.653v-64.853c0-6.827 6.827-13.653 13.653-13.653h204.8c6.827 0 13.653 6.827 13.653 13.653v64.853c0 6.827-6.827 13.653-13.653 13.653h-44.373zM583.68 673.28c0-45.243-36.677-81.92-81.92-81.92s-81.92 36.677-81.92 81.92c0 45.243 36.677 81.92 81.92 81.92s81.92-36.677 81.92-81.92z" />
<glyph unicode="&#xe95a;" glyph-name="icon-quickaccess-locate-me" d="M512 755.2c-170.667 0-307.2-136.533-307.2-307.2s136.533-307.2 307.2-307.2c170.667 0 307.2 136.533 307.2 307.2s-136.533 307.2-307.2 307.2zM535.893 209.067v85.333c0 6.827-6.827 13.653-13.653 13.653h-20.48c-6.827 0-13.653-6.827-13.653-13.653v-85.333c-112.64 10.24-204.8 102.4-215.040 215.040h85.333c6.827 0 13.653 6.827 13.653 13.653v20.48c0 6.827-6.827 13.653-13.653 13.653h-85.333c10.24 112.64 102.4 204.8 215.040 215.040v-85.333c0-6.827 6.827-13.653 13.653-13.653h20.48c6.827 0 13.653 6.827 13.653 13.653v85.333c112.64-10.24 204.8-102.4 215.040-215.040h-85.333c-6.827 0-13.653-6.827-13.653-13.653v-20.48c0-6.827 6.827-13.653 13.653-13.653h85.333c-10.24-112.64-102.4-204.8-215.040-215.040z" />
<glyph unicode="&#xe95b;" glyph-name="icon-quickaccess-mail" d="M508.587 424.107l310.613 191.147v30.72c0 10.24-6.827 17.067-17.067 17.067h-580.267c-10.24 0-17.067-6.827-17.067-17.067v-34.133l303.787-187.733zM508.587 379.733l-303.787 187.733v-317.44c0-10.24 6.827-17.067 17.067-17.067h580.267c10.24 0 17.067 6.827 17.067 17.067v324.267l-310.613-194.56z" />
<glyph unicode="&#xe95c;" glyph-name="icon-quickaccess-more" d="M279.893 523.093c-61.44 0-75.093-17.067-75.093-75.093s13.653-75.093 75.093-75.093c58.027 0 75.093 13.653 75.093 75.093s-17.067 75.093-75.093 75.093zM512 523.093c-58.027 0-75.093-13.653-75.093-75.093s13.653-75.093 75.093-75.093c58.027 0 75.093 13.653 75.093 75.093s-17.067 75.093-75.093 75.093zM744.107 523.093c-58.027 0-75.093-13.653-75.093-75.093s13.653-75.093 75.093-75.093c58.027 0 75.093 13.653 75.093 75.093s-13.653 75.093-75.093 75.093z" />
<glyph unicode="&#xe95d;" glyph-name="icon-quickaccess-news" d="M802.133 697.173h-580.267c-10.24 0-17.067-10.24-17.067-20.48v-337.92c0-10.24 6.827-17.067 17.067-17.067h112.64v-122.88h44.373l92.16 122.88h331.093c10.24 0 17.067 6.827 17.067 17.067v337.92c0 10.24-6.827 20.48-17.067 20.48zM385.707 482.133c-20.48 0-27.307 6.827-27.307 27.307s6.827 27.307 27.307 27.307c20.48 0 27.307-6.827 27.307-27.307s-3.413-27.307-27.307-27.307zM512 482.133c-20.48 0-27.307 6.827-27.307 27.307s6.827 27.307 27.307 27.307c20.48 0 27.307-6.827 27.307-27.307s-6.827-27.307-27.307-27.307zM638.293 482.133c-20.48 0-27.307 6.827-27.307 27.307s6.827 27.307 27.307 27.307 27.307-6.827 27.307-27.307c0-20.48-6.827-27.307-27.307-27.307z" />
<glyph unicode="&#xe95e;" glyph-name="icon-quickaccess-offer" d="M812.373 727.893l-23.893 23.893c-3.413 3.413-10.24 3.413-17.067 3.413l-218.453-23.893-341.333-344.747c-6.827-6.827-6.827-17.067 0-23.893l215.040-215.040c6.827-6.827 17.067-6.827 23.893 0l344.747 344.747 23.893 215.040c0 6.827-3.413 13.653-6.827 20.48zM327.68 345.6l225.28 225.28 23.893-23.893-225.28-225.28-23.893 23.893zM413.013 260.267l-23.893 23.893 174.080 174.080 23.893-23.893-174.080-174.080zM703.147 601.6c-20.48 0-37.547 17.067-37.547 37.547s17.067 37.547 37.547 37.547c20.48 0 37.547-17.067 37.547-37.547s-17.067-37.547-37.547-37.547z" />
<glyph unicode="&#xe95f;" glyph-name="icon-quickaccess-owners" d="M706.56 622.080c0 6.827 3.413 13.653 3.413 23.893 0 61.44-51.2 112.64-112.64 112.64-54.613 0-98.987-37.547-109.227-88.747-23.893-3.413-44.373-23.893-71.68-64.853-40.96-61.44-40.96-95.573 3.413-129.707l-129.707-221.867 10.24-30.72 27.307 6.827 13.653 13.653 23.893 13.653v23.893l27.307 6.827v27.307l27.307 6.827v23.893l20.48 10.24v23.893l27.307 10.24 27.307 34.133c47.787-20.48 75.093-3.413 112.64 58.027 47.787 75.093 40.96 105.813-34.133 153.6-20.48 13.653-37.547 20.48-51.2 27.307 10.24 34.133 40.96 61.44 78.507 61.44 44.373 0 81.92-37.547 81.92-81.92 0-3.413 0-6.827 0-10.24-13.653 3.413-27.307 6.827-47.787 6.827 20.48-17.067 34.133-37.547 40.96-61.44 10.24-40.96-10.24-78.507-34.133-112.64-17.067-27.307-34.133-51.2-58.027-64.853v-235.52l23.893-23.893 20.48 20.48 3.413 23.893 13.653 20.48-13.653 20.48 20.48 20.48-13.653 23.893 20.48 20.48-20.48 20.48 13.653 20.48-13.653 20.48 20.48 20.48 3.413 44.373c51.2 6.827 64.853 34.133 68.267 105.813 3.413 51.2-3.413 81.92-23.893 98.987zM559.787 581.12c3.413-17.067-6.827-34.133-23.893-37.547s-34.133 6.827-37.547 23.893c-3.413 10.24 0 17.067 3.413 23.893 6.827-10.24 13.653-17.067 20.48-27.307 3.413-3.413 6.827-3.413 10.24-3.413s6.827 0 10.24 3.413c6.827 6.827 6.827 17.067 0 20.48-6.827 6.827-10.24 10.24-13.653 17.067 13.653 3.413 27.307-6.827 30.72-20.48z" />
<glyph unicode="&#xe960;" glyph-name="icon-quickaccess-phone" d="M699.733 755.2c-88.747-10.24-191.147-95.573-293.547-197.973-105.813-102.4-191.147-204.8-201.387-293.547-6.827-64.853 68.267-105.813 95.573-119.467 3.413-3.413 10.24 0 13.653 3.413l85.333 116.053c3.413 3.413 3.413 6.827 0 10.24-20.48 20.48-23.893 27.307-27.307 44.373-10.24 40.96 30.72 98.987 102.4 167.253s133.12 109.227 170.667 102.4c17.067-3.413 30.72-13.653 44.373-27.307 3.413-3.413 6.827-3.413 10.24 0l109.227 81.92c6.827 6.827 10.24 17.067 6.827 27.307-17.067 27.307-58.027 88.747-116.053 85.333z" />
<glyph unicode="&#xe961;" glyph-name="icon-quickaccess-pin" d="M512 755.2c-177.493 0-221.867-44.373-221.867-221.867 0-157.013 174.080-348.16 215.040-389.12 3.413-3.413 13.653-3.413 17.067 0 40.96 44.373 215.040 235.52 215.040 389.12-3.413 177.493-47.787 221.867-225.28 221.867zM580.267 557.227c0-37.547-30.72-68.267-68.267-68.267s-68.267 30.72-68.267 68.267c0 0 0 0 0 0s0 0 0 0c0 37.547 30.72 68.267 68.267 68.267 37.547 3.413 68.267-27.307 68.267-68.267 0 3.413 0 3.413 0 0 0 3.413 0 3.413 0 0z" />
<glyph unicode="&#xe962;" glyph-name="icon-nextstep-360" d="M414.72 316.16c-20.48 0-35.84 3.84-48.64 11.52l-10.24-29.44c15.36-7.68 32-14.080 58.88-14.080 47.36 0 72.96 21.76 72.96 53.76 0 24.32-14.080 39.68-32 46.080v0c12.8 3.84 26.88 17.92 26.88 39.68 0 32-23.040 52.48-67.84 52.48-17.92 0-39.68-5.12-55.040-11.52l10.24-29.44c14.080 5.12 30.72 8.96 43.52 8.96 20.48 0 29.44-8.96 29.44-23.040s-7.68-24.32-29.44-24.32h-30.72v-30.72h30.72c25.6 0 34.56-7.68 34.56-24.32s-14.080-25.6-33.28-25.6zM619.52 471.040h-40.96l-51.2-79.36c-8.96-15.36-12.8-29.44-12.8-44.8 0-34.56 24.32-64 70.4-64s70.4 29.44 70.4 64c0 35.84-24.32 61.44-57.6 61.44-8.96 0-16.64-1.28-20.48-3.84v0l42.24 61.44v5.12zM584.96 377.6c19.2 0 30.72-10.24 30.72-29.44 0-20.48-11.52-32-30.72-32s-32 11.52-32 32c0 20.48 12.8 29.44 32 29.44zM741.12 476.16c-51.2 0-71.68-37.12-71.68-96s20.48-96 71.68-96c49.92 0 70.4 37.12 70.4 96s-20.48 96-70.4 96zM741.12 316.16c-24.32 0-32 20.48-32 64 0 42.24 7.68 64 32 64s32-20.48 32-64c0-43.52-7.68-64-32-64zM864 472.32c-20.48 0-35.84-15.36-35.84-35.84 0-19.2 14.080-34.56 35.84-34.56 19.2 0 35.84 14.080 35.84 35.84 0 17.92-14.080 34.56-35.84 34.56zM864 414.72c-11.52 0-20.48 10.24-20.48 21.76s6.4 24.32 20.48 24.32c15.36 0 21.76-12.8 21.76-23.040 0-12.8-10.24-23.040-21.76-23.040zM481.28 130.56c-143.36 0-258.56 116.48-258.56 258.56 0 143.36 116.48 258.56 258.56 258.56h42.24v-108.8c0-10.24 11.52-15.36 19.2-8.96l180.48 154.88c6.4 5.12 6.4 15.36 0 20.48l-180.48 156.16c-7.68 6.4-19.2 1.28-19.2-8.96v-104.96h-42.24c-197.12 0-357.12-160-357.12-357.12s160-357.12 357.12-357.12c87.040 0 171.52 32 236.8 89.6l-65.28 74.24c-46.080-43.52-107.52-66.56-171.52-66.56z" />
<glyph unicode="&#xe963;" glyph-name="icon-nextstep-brochure" d="M876.8 844.8c-14.080 7.68-30.72 7.68-44.8-1.28-1.28 0-90.88-56.32-165.12-84.48-61.44-24.32-131.84-39.68-156.16-44.8-24.32 5.12-94.72 20.48-156.16 44.8-72.96 28.16-162.56 84.48-163.84 84.48-14.080 8.96-30.72 8.96-44.8 1.28s-23.040-23.040-23.040-38.4v-578.56c0-15.36 7.68-29.44 20.48-37.12 3.84-2.56 94.72-58.88 179.2-92.16s176.64-49.92 180.48-51.2v0c2.56 0 5.12-1.28 7.68-1.28s5.12 0 7.68 1.28c3.84 1.28 96 17.92 180.48 51.2s175.36 89.6 179.2 92.16c12.8 7.68 20.48 21.76 20.48 37.12v578.56c1.28 15.36-7.68 30.72-21.76 38.4zM212.48 252.16v477.44c33.28-17.92 72.96-38.4 111.36-53.76 51.2-20.48 108.8-34.56 144.64-43.52v-488.96c-32 7.68-72.96 19.2-111.36 34.56-55.040 23.040-113.92 56.32-144.64 74.24zM811.52 252.16c-30.72-17.92-90.88-51.2-144.64-72.96-38.4-15.36-79.36-26.88-111.36-34.56v488.96c35.84 7.68 92.16 23.040 144.64 43.52 38.4 15.36 78.080 35.84 111.36 53.76v-478.72z" />
<glyph unicode="&#xe964;" glyph-name="icon-nextstep-business-customers" d="M596.48 517.12c-24.32 43.52-65.28 112.64-72.96 120.32-10.24 8.96-161.28 10.24-199.68 10.24-37.12-1.28-177.92-1.28-188.16-10.24-7.68-7.68-42.24-75.52-61.44-120.32-19.2 0-44.8-1.28-51.2-7.68-10.24-10.24-23.040-24.32-15.36-33.28 5.12-5.12 16.64-3.84 16.64-3.84h30.72c-2.56-6.4-3.84-11.52-6.4-17.92-30.72-98.56-32-117.76-32-117.76v-128c0 0 1.28-21.76 21.76-35.84v-62.72c0-6.4 5.12-12.8 12.8-12.8h61.44c6.4 0 12.8 5.12 12.8 12.8v49.92c90.88-2.56 331.52-2.56 422.4 0v-49.92c0-6.4 5.12-12.8 12.8-12.8h61.44c6.4 0 12.8 5.12 12.8 12.8v61.44c20.48 12.8 21.76 35.84 21.76 35.84v128c0 0-1.28 19.2-32 117.76-1.28 6.4-3.84 11.52-6.4 17.92h33.28c0 0 11.52-1.28 16.64 3.84 7.68 8.96-3.84 23.040-15.36 33.28-8.96 7.68-37.12 8.96-56.32 8.96zM165.12 592.64c23.040 2.56 69.12 3.84 139.52 5.12 7.68 0 12.8 0 17.92 0s11.52 0 19.2 0c76.8-1.28 128-2.56 151.040-5.12 16.64-26.88 51.2-85.76 65.28-112.64h-448c11.52 24.32 40.96 84.48 55.040 112.64zM101.12 312.32v0c-23.040 1.28-40.96 20.48-40.96 44.8s19.2 44.8 44.8 44.8c6.4 0 19.2-3.84 19.2-3.84l51.2-29.44 11.52-55.040h-85.76zM431.36 311.040c-24.32-5.12-167.68-5.12-192 0-29.44 6.4-35.84 58.88-35.84 58.88h264.96c-1.28 0-7.68-52.48-37.12-58.88zM569.6 313.6v0h-84.48l11.52 55.040 51.2 29.44c0 0 12.8 3.84 19.2 3.84 24.32 0 44.8-19.2 44.8-44.8 0-23.040-19.2-42.24-42.24-43.52zM1017.6 625.92c7.68 8.96-3.84 23.040-15.36 33.28-6.4 6.4-35.84 7.68-55.040 7.68-24.32 43.52-65.28 112.64-72.96 120.32-10.24 8.96-161.28 10.24-199.68 10.24-37.12-1.28-177.92-1.28-188.16-10.24-6.4-5.12-26.88-44.8-44.8-81.92 21.76-1.28 39.68-1.28 53.76-2.56 7.68 15.36 15.36 30.72 20.48 40.96 23.040 2.56 69.12 3.84 139.52 5.12 7.68 0 12.8 0 17.92 0s11.52 0 19.2 0c76.8-1.28 128-2.56 151.040-5.12 17.92-26.88 51.2-85.76 65.28-112.64h-308.48c11.52-17.92 23.040-38.4 32-53.76 29.44-2.56 47.36-10.24 61.44-24.32 11.52-11.52 19.2-21.76 24.32-32h101.12c0 0-7.68-52.48-35.84-58.88-8.96-1.28-32-2.56-58.88-3.84-3.84-10.24-10.24-19.2-14.080-23.040-3.84-5.12-8.96-8.96-15.36-12.8 10.24-34.56 19.2-67.84 19.2-83.2v-29.44c72.96 0 142.080 1.28 181.76 2.56v-49.92c0-6.4 5.12-12.8 12.8-12.8h61.44c6.4 0 12.8 5.12 12.8 12.8v61.44c20.48 12.8 21.76 35.84 21.76 35.84v126.72c0 0-1.28 19.2-32 117.76-1.28 6.4-3.84 11.52-6.4 17.92h33.28c1.28 0 12.8-1.28 17.92 3.84zM921.6 463.36v0h-84.48l11.52 55.040 51.2 29.44c0 0 12.8 3.84 19.2 3.84 24.32 0 44.8-19.2 44.8-44.8-1.28-23.040-19.2-42.24-42.24-43.52z" />
<glyph unicode="&#xe965;" glyph-name="icon-nextstep-calculator" d="M753.92 860.16h-483.84c-24.32 0-43.52-19.2-43.52-43.52v-738.56c0-24.32 19.2-43.52 43.52-43.52h482.56c24.32 0 43.52 19.2 43.52 43.52v738.56c0 24.32-19.2 43.52-42.24 43.52zM313.6 774.4h396.8v-190.72h-396.8v190.72zM419.84 102.4h-107.52v106.24h107.52v-106.24zM419.84 244.48h-107.52v106.24h107.52v-106.24zM419.84 387.84h-107.52v106.24h107.52v-106.24zM565.76 102.4h-107.52v106.24h107.52v-106.24zM565.76 244.48h-107.52v106.24h107.52v-106.24zM565.76 387.84h-107.52v106.24h107.52v-106.24zM711.68 102.4h-107.52v106.24h107.52v-106.24zM711.68 244.48h-107.52v106.24h107.52v-106.24zM711.68 387.84h-107.52v106.24h107.52v-106.24z" />
<glyph unicode="&#xe966;" glyph-name="icon-nextstep-calendar" d="M311.040 642.56v0c-17.92 0-32 14.080-32 32v94.72c0 17.92 14.080 32 32 32v0c17.92 0 32-14.080 32-32v-94.72c-1.28-17.92-15.36-32-32-32zM512 642.56v0c-17.92 0-32 14.080-32 32v94.72c0 17.92 14.080 32 32 32v0c17.92 0 32-14.080 32-32v-94.72c0-17.92-14.080-32-32-32zM712.96 642.56v0c-17.92 0-32 14.080-32 32v94.72c0 17.92 14.080 32 32 32v0c17.92 0 32-14.080 32-32v-94.72c0-17.92-14.080-32-32-32zM789.76 684.8v-7.68c0-39.68-29.44-75.52-69.12-80.64-46.080-3.84-84.48 32-84.48 76.8v10.24h-47.36v-7.68c0-39.68-29.44-75.52-69.12-80.64-46.080-5.12-84.48 32-84.48 76.8v10.24h-47.36v-7.68c0-39.68-29.44-75.52-69.12-80.64-46.080-3.84-84.48 32-84.48 76.8v10.24h-74.24c-8.96 0-15.36-6.4-15.36-15.36v-558.080c0-8.96 6.4-15.36 15.36-15.36h704c8.96 0 15.36 6.4 15.36 15.36v561.92c0 8.96-6.4 15.36-15.36 15.36h-74.24zM380.16 174.080h-133.12v136.96h134.4v-136.96zM380.16 369.92h-133.12v136.96h134.4v-136.96zM578.56 174.080h-133.12v136.96h134.4v-136.96zM578.56 369.92h-133.12v136.96h134.4v-136.96zM776.96 272.64l-92.16-98.56h-42.24v136.96h134.4v-38.4zM776.96 369.92h-133.12v136.96h134.4v-136.96z" />
<glyph unicode="&#xe967;" glyph-name="icon-nextstep-calendar-export" d="M1008.64 281.6l-240.64 206.080c-10.24 8.96-25.6 1.28-25.6-11.52v-106.24c-66.56-6.4-226.56-30.72-328.96-131.84-131.84-130.56-129.28-230.4-129.28-230.4h21.76c0 0 74.24 102.4 213.76 144.64 96 29.44 179.2 33.28 222.72 33.28v-126.72c0-12.8 15.36-20.48 25.6-11.52l240.64 207.36c7.68 6.4 7.68 19.2 0 26.88zM175.36 729.6c17.92 0 32 14.080 32 32v96c0 17.92-14.080 32-32 32s-32-14.080-32-32v-94.72c0-19.2 14.080-33.28 32-33.28zM376.32 729.6c17.92 0 32 14.080 32 32v96c0 17.92-14.080 32-32 32-16.64-1.28-30.72-15.36-30.72-32v-94.72c0-19.2 14.080-33.28 30.72-33.28zM578.56 729.6c17.92 0 32 14.080 32 32v96c0 17.92-14.080 32-32 32s-32-14.080-32-32v-94.72c0-19.2 14.080-33.28 32-33.28zM363.52 262.4h-53.76v135.68h134.4v-69.12c20.48 12.8 42.24 24.32 64 34.56v34.56h97.28c30.72 7.68 58.88 14.080 83.2 17.92v60.16c0 33.28 23.040 60.16 55.040 66.56v213.76c0 8.96-6.4 15.36-15.36 15.36h-74.24v-7.68c0-39.68-29.44-75.52-69.12-80.64-46.080-3.84-84.48 32-84.48 76.8v10.24h-47.36v-7.68c0-39.68-29.44-75.52-69.12-80.64-46.080-3.84-84.48 32-84.48 76.8v10.24h-47.36v-7.68c0-39.68-29.44-75.52-69.12-80.64-46.080-3.84-84.48 32-84.48 76.8v10.24h-74.24c-8.96 0-15.36-6.4-15.36-15.36v-558.080c0-8.96 6.4-15.36 15.36-15.36h273.92c16.64 28.16 38.4 55.040 65.28 83.2zM508.16 595.2h134.4v-136.96h-134.4v136.96zM309.76 595.2h134.4v-136.96h-134.4v136.96zM245.76 262.4h-134.4v135.68h134.4v-135.68zM245.76 458.24h-134.4v136.96h134.4v-136.96z" />
<glyph unicode="&#xe968;" glyph-name="icon-nextstep-car" d="M988.16 444.16v57.6c0 0-8.96 26.88-43.52 64-20.48 23.040-33.28 30.72-33.28 30.72l8.96 7.68v5.12c0 0-133.12 28.16-328.96 24.32-195.84-5.12-300.8-103.68-300.8-103.68s-151.040-12.8-221.44-47.36c-29.44-15.36-39.68-65.28-39.68-65.28l-11.52-17.92v-66.56c0 0 30.72-20.48 99.84-20.48 1.28 0 3.84 0 6.4 0 8.96-29.44 37.12-51.2 70.4-51.2s61.44 21.76 70.4 51.2c145.92 0 364.8 0 512 0 8.96-29.44 37.12-51.2 70.4-51.2s60.16 21.76 70.4 51.2c8.96 0 12.8 0 12.8 0s72.96 7.68 72.96 47.36c0 40.96 0 56.32 0 56.32l-15.36 28.16z" />
<glyph unicode="&#xe969;" glyph-name="icon-nextstep-checkmark" d="M394.24 78.080l-326.4 261.12c-7.68 6.4-8.96 17.92-2.56 25.6l48.64 56.32c6.4 6.4 15.36 8.96 23.040 3.84l249.6-154.88 486.4 545.28c6.4 7.68 17.92 7.68 25.6 2.56l58.88-46.080c7.68-6.4 8.96-17.92 2.56-25.6l-540.16-665.6c-6.4-7.68-16.64-8.96-25.6-2.56z" />
<glyph unicode="&#xe96a;" glyph-name="icon-nextstep-compare" d="M823.040 683.52l-221.44 190.72c-8.96 7.68-23.040 1.28-23.040-10.24v-108.8l-304.64-14.080c-10.24 0-19.2-10.24-19.2-20.48v-97.28c0-11.52 8.96-20.48 19.2-20.48l304.64-14.080v-108.8c0-12.8 14.080-19.2 23.040-10.24l221.44 190.72c7.68 5.12 7.68 16.64 0 23.040zM750.080 294.4l-304.64 12.8v108.8c0 12.8-14.080 19.2-23.040 10.24l-221.44-189.44c-7.68-6.4-7.68-17.92 0-24.32l221.44-190.72c8.96-7.68 23.040-1.28 23.040 10.24v108.8l304.64 14.080c10.24 0 19.2 10.24 19.2 20.48v97.28c0 11.52-7.68 20.48-19.2 21.76z" />
<glyph unicode="&#xe96b;" glyph-name="icon-nextstep-configure" d="M846.080 485.12c-7.68 29.44-12.8 48.64-20.48 78.080l51.2 112.64c-34.56 40.96-39.68 46.080-74.24 87.040l-119.040-32c-26.88 12.8-46.080 20.48-72.96 33.28l-56.32 111.36c-53.76-1.28-61.44-1.28-113.92-3.84l-48.64-113.92c-26.88-14.080-43.52-23.040-70.4-37.12l-121.6 25.6c-32-43.52-35.84-48.64-67.84-92.16l58.88-110.080c-5.12-29.44-8.96-48.64-15.36-78.080l-94.72-79.36c14.080-52.48 15.36-58.88 29.44-111.36l121.6-23.040c19.2-23.040 32-38.4 52.48-61.44l3.84-124.16c48.64-21.76 56.32-24.32 104.96-47.36l93.44 80.64c29.44 1.28 49.92 1.28 79.36 2.56l98.56-75.52c47.36 24.32 53.76 28.16 101.12 52.48l-6.4 124.16c17.92 24.32 29.44 39.68 47.36 64l120.32 29.44c10.24 52.48 11.52 60.16 21.76 112.64l-102.4 75.52zM512 244.48c-112.64 0-203.52 90.88-203.52 203.52s90.88 203.52 203.52 203.52c112.64 0 203.52-90.88 203.52-203.52s-90.88-203.52-203.52-203.52z" />
<glyph unicode="&#xe96c;" glyph-name="icon-nextstep-convince-someone" d="M318.72 472.32c-3.84 6.4-11.52 10.24-20.48 10.24h-162.56c-14.080 0-24.32-11.52-24.32-24.32v-363.52c0-14.080 11.52-24.32 24.32-24.32h162.56c7.68 0 15.36 3.84 20.48 10.24v391.68zM892.16 505.6c-3.84 7.68-11.52 12.8-19.2 12.8h-252.16c0 0 32 70.4 32 136.96s-51.2 143.36-51.2 143.36-21.76 28.16-57.6 28.16c-34.56 0-51.2-32-51.2-32v-143.36c0 0-115.2-194.56-115.2-190.72 0 0-1.28 0-3.84-1.28v-375.040l32-15.36h394.24c0 0 38.4-8.96 89.6 181.76 40.96 147.2 16.64 226.56 2.56 254.72z" />
<glyph unicode="&#xe96d;" glyph-name="icon-nextstep-corporate-topics" d="M893.44 623.36v6.4c0 11.52-8.96 21.76-21.76 21.76h-193.28v69.12c0 32-25.6 58.88-57.6 58.88h-217.6c-32 0-57.6-26.88-57.6-58.88v-69.12h-194.56c-11.52 0-21.76-8.96-21.76-21.76v-7.68l128-190.72h509.44l126.72 192zM602.88 651.52h-181.76v52.48h181.76v-52.48zM794.88 380.16h-179.2v-28.16c0-40.96-33.28-72.96-72.96-72.96h-60.16c-40.96 0-72.96 33.28-72.96 72.96v28.16h-179.2l-99.84 148.48v-390.4c0-11.52 8.96-21.76 21.76-21.76h721.92c11.52 0 21.76 8.96 21.76 21.76v390.4l-101.12-148.48zM481.28 331.52h60.16c11.52 0 20.48 8.96 20.48 20.48v28.16h-102.4v-28.16c1.28-11.52 10.24-20.48 21.76-20.48z" />
<glyph unicode="&#xe96e;" glyph-name="icon-nextstep-dealer" d="M517.12 560.64c75.52 0 121.6 46.080 121.6 121.6s-33.28 136.96-121.6 136.96c-90.88 0-121.6-61.44-121.6-136.96s46.080-121.6 121.6-121.6zM773.12 236.8c-2.56 194.56-40.96 267.52-174.080 286.72-20.48-16.64-47.36-25.6-80.64-25.6s-61.44 8.96-81.92 26.88c-139.52-16.64-180.48-87.040-183.040-284.16 0-6.4 0-14.080 0-20.48v-98.56c0-10.24 7.68-19.2 16.64-19.2 0 0 56.32-26.88 245.76-26.88s243.2 26.88 243.2 26.88c8.96 0 16.64 8.96 16.64 19.2v81.92c0 10.24 0 15.36 0 15.36-2.56 6.4-2.56 12.8-2.56 17.92zM518.4 193.28c-5.12-5.12-12.8-5.12-17.92 0l-39.68 47.36 37.12 218.88h29.44l35.84-218.88-44.8-47.36z" />
<glyph unicode="&#xe96f;" glyph-name="icon-nextstep-download" d="M857.6 375.040h-75.52c-8.96 0-15.36-6.4-15.36-15.36v-7.68c0-53.76-2.56-128-26.88-152.32-21.76-21.76-88.32-21.76-180.48-20.48-29.44 0-64 0-93.44 0-92.16 0-158.72-1.28-180.48 20.48-24.32 23.040-26.88 98.56-26.88 152.32v7.68c0 8.96-6.4 15.36-15.36 15.36h-76.8c-8.96 0-15.36-6.4-15.36-15.36v-7.68c0-102.4 10.24-179.2 57.6-226.56 53.76-52.48 134.4-52.48 257.28-52.48 29.44 0 62.72 0 92.16 0 12.8 0 24.32 0 37.12 0 102.4 0 171.52 5.12 220.16 52.48s57.6 125.44 57.6 226.56v7.68c0 7.68-6.4 15.36-15.36 15.36zM500.48 350.72c6.4-6.4 16.64-6.4 23.040 0l175.36 203.52c7.68 8.96 1.28 21.76-10.24 21.76h-101.12l-11.52 229.12c0 10.24-8.96 17.92-19.2 17.92h-89.6c-10.24 0-17.92-7.68-19.2-17.92l-11.52-229.12h-101.12c-11.52 0-16.64-12.8-10.24-21.76l175.36-203.52z" />
<glyph unicode="&#xe970;" glyph-name="icon-nextstep-email" d="M688.64 79.36c3.84-14.080-3.84-29.44-17.92-33.28-40.96-12.8-93.44-21.76-156.16-21.76-254.72 0-416 145.92-416 417.28 0 226.56 163.84 432.64 441.6 432.64 244.48 0 386.56-167.68 386.56-371.2 0-189.44-108.8-291.84-213.76-291.84-66.56 0-102.4 25.6-122.88 64h-2.56c-34.56-25.6-76.8-51.2-133.12-51.2-92.16 0-156.16 70.4-156.16 174.080-1.28 126.72 74.24 267.52 207.36 267.52 55.040 0 88.32-25.6 113.92-47.36h1.28l23.040 34.56h47.36c15.36 0 28.16-14.080 24.32-29.44l-42.24-235.52c-11.52-60.16-1.28-97.28 47.36-97.28 57.6 0 117.76 65.28 117.76 209.92 0 154.88-88.32 291.84-299.52 291.84-231.68 0-352-171.52-349.44-357.12 1.28-197.12 157.44-346.88 357.12-332.8 38.4 2.56 72.96 10.24 102.4 17.92 15.36 3.84 30.72-5.12 34.56-19.2l5.12-21.76zM597.76 546.56c-17.92 16.64-46.080 25.6-72.96 25.6-71.68 0-116.48-78.080-116.48-170.24 0-51.2 21.76-85.76 72.96-85.76 28.16 0 61.44 11.52 83.2 28.16l33.28 202.24z" />
<glyph unicode="&#xe971;" glyph-name="icon-nextstep-exclamation-mark" d="M537.6 323.84h-51.2c-14.080 0-26.88 11.52-28.16 25.6l-29.44 307.2v152.32c0 24.32 20.48 44.8 44.8 44.8h79.36c24.32 0 44.8-19.2 44.8-44.8v-152.32l-29.44-307.2c-3.84-14.080-15.36-25.6-30.72-25.6zM605.44 135.68c0-51.605-41.835-93.44-93.44-93.44s-93.44 41.835-93.44 93.44c0 51.605 41.835 93.44 93.44 93.44s93.44-41.835 93.44-93.44z" />
<glyph unicode="&#xe972;" glyph-name="icon-nextstep-favourite" d="M533.76 783.36l76.8-234.24h247.040c23.040 0 32-28.16 14.080-42.24l-200.96-144.64 76.8-234.24c6.4-21.76-17.92-39.68-35.84-25.6l-199.68 143.36-199.68-144.64c-17.92-12.8-42.24 5.12-35.84 25.6l76.8 234.24-199.68 145.92c-17.92 12.8-8.96 42.24 14.080 42.24h247.040l76.8 234.24c5.12 21.76 35.84 21.76 42.24 0z" />
<glyph unicode="&#xe973;" glyph-name="icon-nextstep-fax" d="M771.84 773.12c0 8.96-6.4 15.36-15.36 15.36h-488.96c-8.96 0-15.36-6.4-15.36-15.36v-230.4h519.68v230.4zM901.12 488.96h-778.24c-12.8 0-23.040-10.24-23.040-23.040v-335.36c0-12.8 10.24-23.040 23.040-23.040h778.24c12.8 0 23.040 10.24 23.040 23.040v335.36c0 12.8-10.24 23.040-23.040 23.040zM747.52 224c-1.28-6.4-7.68-10.24-14.080-8.96l-85.76 12.8c-2.56 0-5.12 2.56-5.12 5.12 0 12.8-2.56 23.040-7.68 32-12.8 19.2-58.88 30.72-122.88 30.72-62.72 0-107.52-6.4-122.88-29.44-6.4-8.96-7.68-14.080-7.68-32 0-2.56-2.56-5.12-5.12-5.12l-90.88-12.8c-3.84 0-6.4 1.28-7.68 5.12-6.4 17.92-20.48 71.68 10.24 97.28 44.8 34.56 129.28 39.68 224 39.68 93.44 0 177.92-6.4 222.72-43.52 29.44-23.040 19.2-70.4 12.8-90.88z" />
<glyph unicode="&#xe974;" glyph-name="icon-nextstep-filter" d="M848.64 744.96c0 12.8-10.24 23.040-23.040 23.040h-627.2c-12.8 0-23.040-10.24-23.040-23.040v-79.36l264.96-243.2v-234.24c0-33.28 26.88-60.16 60.16-60.16h24.32c33.28 0 58.88 26.88 58.88 60.16v231.68l264.96 245.76v79.36z" />
<glyph unicode="&#xe975;" glyph-name="icon-nextstep-get-your-volkswagen-1" d="M963.84 217.6v55.040c0 0-7.68 25.6-40.96 61.44-20.48 21.76-30.72 29.44-30.72 29.44l8.96 7.68v5.12c0 0-126.72 26.88-312.32 23.040s-285.44-98.56-285.44-98.56-144.64-12.8-211.2-46.080c-28.16-14.080-38.4-62.72-38.4-62.72l-10.24-16.64v-64c0 0 28.16-19.2 94.72-19.2 1.28 0 3.84 0 6.4 0 8.96-28.16 35.84-48.64 66.56-48.64 32 0 57.6 20.48 66.56 48.64 139.52 0 346.88 0 486.4 0 8.96-28.16 35.84-48.64 66.56-48.64s57.6 20.48 66.56 48.64c7.68 0 12.8 0 12.8 0s69.12 6.4 69.12 46.080c0 38.4 0 53.76 0 53.76l-15.36 25.6zM451.84 432.64l72.96 72.96c28.16-16.64 60.16-24.32 92.16-24.32 48.64 0 96 19.2 130.56 53.76s53.76 81.92 53.76 130.56c0 49.92-19.2 96-55.040 130.56-34.56 35.84-81.92 55.040-131.84 55.040-48.64 0-96-19.2-130.56-53.76s-53.76-81.92-53.76-130.56c0-33.28 8.96-64 24.32-92.16l-151.040-152.32c-15.36-15.36-15.36-39.68-1.28-56.32 30.72 20.48 81.92 48.64 149.76 66.56zM537.6 744.96c20.48 20.48 47.36 32 76.8 32s57.6-11.52 78.080-33.28c20.48-20.48 32-48.64 33.28-78.080 0-29.44-11.52-56.32-32-76.8s-47.36-32-76.8-32c-29.44 0-57.6 11.52-78.080 33.28-20.48 20.48-32 48.64-33.28 78.080 1.28 28.16 11.52 56.32 32 76.8z" />
<glyph unicode="&#xe976;" glyph-name="icon-nextstep-get-your-volkswagen-2" d="M963.84 222.72v55.040c0 0-7.68 25.6-40.96 61.44-20.48 21.76-30.72 29.44-30.72 29.44l8.96 7.68v5.12c0 0-126.72 26.88-312.32 23.040s-285.44-98.56-285.44-98.56-144.64-12.8-211.2-46.080c-28.16-14.080-38.4-62.72-38.4-62.72l-10.24-16.64v-64c0 0 28.16-19.2 94.72-19.2 1.28 0 3.84 0 6.4 0 8.96-28.16 35.84-48.64 66.56-48.64 32 0 57.6 20.48 66.56 48.64 139.52 0 346.88 0 486.4 0 8.96-28.16 35.84-48.64 66.56-48.64s57.6 20.48 66.56 48.64c7.68 0 12.8 0 12.8 0s69.12 6.4 69.12 46.080c0 38.4 0 53.76 0 53.76l-15.36 25.6zM49.92 485.12c10.24-38.4 11.52-43.52 21.76-81.92l90.88-16.64c12.8-15.36 23.040-26.88 34.56-40.96 34.56 6.4 65.28 10.24 83.2 11.52 10.24 7.68 25.6 17.92 46.080 29.44-61.44 19.2-104.96 76.8-104.96 143.36 0 83.2 67.84 151.040 151.040 151.040s151.040-67.84 151.040-151.040c0-30.72-8.96-58.88-24.32-83.2 26.88 5.12 56.32 7.68 88.32 8.96 14.080 0 28.16 0 42.24 0 19.2 0 38.4 0 56.32-1.28 2.56 12.8 5.12 24.32 8.96 47.36l-74.24 55.040c-5.12 21.76-8.96 35.84-15.36 57.6l37.12 83.2c-25.6 30.72-29.44 34.56-55.040 65.28l-88.32-24.32c-20.48 8.96-33.28 15.36-53.76 24.32l-42.24 81.92c-39.68-1.28-44.8-1.28-84.48-2.56l-37.12-81.92c-19.2-10.24-33.28-16.64-52.48-26.88l-89.6 19.2c-23.040-32-26.88-35.84-49.92-67.84l43.52-81.92c-3.84-21.76-6.4-35.84-11.52-57.6l-71.68-60.16z" />
<glyph unicode="&#xe977;" glyph-name="icon-nextstep-home" d="M903.68 446.72l-391.68 391.68-176.64-176.64v89.6h-96v-185.6l-119.040-119.040c-6.4-6.4-2.56-19.2 7.68-19.2h83.2v-348.16c0-12.8 10.24-23.040 23.040-23.040h294.4v230.4h147.2v-230.4h115.2c12.8 0 23.040 10.24 23.040 23.040v348.16h81.92c10.24 0 14.080 11.52 7.68 19.2z" />
<glyph unicode="&#xe978;" glyph-name="icon-nextstep-image" d="M696.32 427.52l-106.24 143.36-104.96-148.48-72.96 66.56-72.96-106.24v-49.92h357.12zM482.56 602.88c0-21.915-17.765-39.68-39.68-39.68s-39.68 17.765-39.68 39.68c0 21.915 17.765 39.68 39.68 39.68s39.68-17.765 39.68-39.68zM787.2 787.2h-550.4c-20.48 0-37.12-16.64-37.12-37.12v-602.88c0-20.48 16.64-38.4 37.12-38.4h550.4c20.48 0 38.4 16.64 38.4 38.4v602.88c0 20.48-17.92 37.12-38.4 37.12zM750.080 711.68v-448h-476.16v448h476.16z" />
<glyph unicode="&#xe979;" glyph-name="icon-nextstep-image-gallery" d="M628.48 364.8l-106.24 143.36-104.96-148.48-72.96 65.28-72.96-106.24v-49.92h357.12zM414.72 538.88c0-21.915-17.765-39.68-39.68-39.68s-39.68 17.765-39.68 39.68c0 21.915 17.765 39.68 39.68 39.68s39.68-17.765 39.68-39.68zM719.36 723.2h-550.4c-20.48 0-37.12-16.64-37.12-37.12v-602.88c0-20.48 16.64-37.12 37.12-37.12h550.4c20.48 0 38.4 16.64 38.4 37.12v602.88c0 20.48-17.92 37.12-38.4 37.12zM682.24 647.68v-448h-476.16v448h476.16zM855.040 851.2h-550.4c-20.48 0-37.12-16.64-37.12-37.12s16.64-37.12 37.12-37.12h513.28v-565.76c0-20.48 16.64-38.4 38.4-38.4 20.48 0 37.12 16.64 37.12 38.4v601.6c0 21.76-17.92 38.4-38.4 38.4z" />
</font>
</defs>
</svg>
